<?xml version="1.0" encoding="utf-8"?>
<!-- Generator: Adobe Illustrator 24.3.0, SVG Export Plug-In . SVG Version: 6.00 Build 0)  -->
<svg version="1.1" id="Camada_1" xmlns="http://www.w3.org/2000/svg" xmlns:xlink="http://www.w3.org/1999/xlink" x="0px" y="0px"
	 viewBox="0 0 612 792" style="enable-background:new 0 0 612 792;" xml:space="preserve">
<style type="text/css">
	.st0{fill:#1E1E1C;}
	.st1{fill:#1197C4;}
	.st2{fill:#F3A40A;}
	.st3{fill:#7C5FA5;}
</style>
<g>
	<g>
		<g>
			<path class="st0" d="M144.11,552.32h-24.03v-72.59h24.03V552.32z"/>
		</g>
		<g>
			<path class="st0" d="M235.86,552.32h-62.34v-72.59h61.41v18.23h-37.39v8.91h33.97v18.21h-33.97v9.01h38.31V552.32z"/>
			<path class="st0" d="M310.52,552.32h-62.34v-72.59h61.41v18.23h-37.39v8.91h33.97v18.21h-33.97v9.01h38.31V552.32z"/>
			<path class="st0" d="M398.26,552.32h-25.59l-3.62-10.25H341.8l-3.73,10.25h-24.65l30.66-72.59h24.65L398.26,552.32z
				 M363.14,524.87l-7.45-21.23l-7.67,21.23H363.14z"/>
		</g>
		<g>
			<path class="st0" d="M423.07,536.15c-4.44,0-8.06-1.42-10.87-4.25c-2.81-2.84-4.22-6.65-4.22-11.46c0-4.81,1.43-8.61,4.28-11.4
				c2.85-2.79,6.43-4.19,10.75-4.19c5.62,0,9.7,2.42,12.24,7.24v-19.72h4.63v43.78h-4.63v-6.86
				C432.67,533.87,428.6,536.15,423.07,536.15z M423.95,532.17c3.28,0,5.99-1.08,8.11-3.26c2.12-2.18,3.18-4.96,3.18-8.35
				c0-3.23-1.02-5.98-3.06-8.26c-2.03-2.27-4.77-3.42-8.22-3.42c-3.52,0-6.3,1.16-8.32,3.45c-2.01,2.29-3.02,5.03-3.02,8.22
				c0,3.27,1.01,6.02,3.02,8.26C417.66,531.05,420.43,532.17,423.95,532.17z"/>
			<path class="st0" d="M459.4,536.15c-2.44,0-4.43-0.44-5.98-1.31c-1.55-0.88-2.72-2.04-3.49-3.5c-0.77-1.45-1.16-3.01-1.16-4.69
				c0-2.51,0.94-4.61,2.82-6.27c1.88-1.68,4.84-2.51,8.87-2.51h10.28v-1.93c0-2.14-0.66-3.87-1.99-5.21
				c-1.32-1.33-3.45-2.01-6.38-2.01c-3.49,0-6.8,1.2-9.92,3.61l-1.96-3.12c4.04-2.9,8.3-4.35,12.77-4.35c4.24,0,7.31,0.99,9.2,2.96
				c1.91,1.97,2.86,4.55,2.86,7.74l0.06,20.6h-4.51v-5.04C468.21,534.46,464.38,536.15,459.4,536.15z M460.29,532.29
				c2.46,0,4.63-0.57,6.5-1.7c1.89-1.13,3.22-2.92,4.01-5.38v-3.79h-9.75c-5.22,0-7.88,1.7-7.95,5.11c0,1.58,0.6,2.94,1.81,4.07
				C456.12,531.72,457.91,532.29,460.29,532.29z"/>
		</g>
		<g>
			<path class="st0" d="M207.42,645.24c-6.18,0-11.89-1.13-17.14-3.4c-5.23-2.25-9.51-5.82-12.78-10.63
				c-3.05-4.63-4.56-10.32-4.56-17.08v-41.53h24.03v41.2c0,3.89,1.13,6.76,3.36,8.63c2.24,1.89,4.63,2.82,7.2,2.82
				c2.56,0,4.83-0.95,6.83-2.85c2-1.91,3-4.78,3-8.6v-41.2h24.03v41.53c0,9.2-2.96,16.67-8.91,22.45
				C226.56,642.35,218.2,645.24,207.42,645.24z"/>
			<path class="st0" d="M274.74,645.18h-24.03v-72.59h58.41v18.23h-34.39v12.52h32.21v18.23h-32.21V645.18z"/>
			<path class="st0" d="M402.96,645.18h-21.03v-39.77l-14.61,32.73h-15.63l-14.59-32.73v39.77h-21.03v-72.59h25.48l18.01,37.89
				l17.92-37.89h25.48V645.18z"/>
			<path class="st0" d="M491.91,645.18h-25.59l-3.62-10.25h-27.24l-3.73,10.25h-24.65l30.66-72.59h24.65L491.91,645.18z
				 M456.8,617.74l-7.45-21.23l-7.67,21.23H456.8z"/>
		</g>
	</g>
	<g>
		<path class="st1" d="M265.87,380.76l63.58-110.13l48.66,84.29V226.93h-74.17c-4.41,41.88-37.78,75.25-79.65,79.66v74.17H265.87z"
			/>
		<path class="st2" d="M205.29,287.47v-79.54h79.53c-4.66-34.49-34.28-61.17-70.03-61.17c-38.98,0-70.68,31.7-70.68,70.67
			C144.11,253.18,170.8,282.82,205.29,287.47z"/>
		<path class="st3" d="M284.82,226.93h-60.53v60.54C255.68,283.23,280.58,258.31,284.82,226.93z"/>
		<polygon class="st2" points="371.1,380.76 329.45,308.62 287.8,380.76 		"/>
		<polygon class="st3" points="396.13,424.1 382.07,399.76 276.83,399.76 262.77,424.1 		"/>
	</g>
</g>
</svg>
