<svg width="400" height="400" viewBox="0 0 400 400" fill="none" xmlns="http://www.w3.org/2000/svg">
<path fill-rule="evenodd" clip-rule="evenodd" d="M108.882 185.376H115.906V176.219H127.843V170.296H115.906V165.909H129.102V159.666H108.882V185.376ZM143.685 185.857C150.866 185.857 155.528 182.239 155.528 173.914V159.666H148.41V174.138C148.41 177.756 146.583 179.453 143.748 179.453C140.945 179.453 139.087 177.66 139.087 173.978V159.666H131.969V174.106C131.969 182.143 136.473 185.857 143.685 185.857ZM159.685 185.376H166.614V171.288L177.417 185.376H183.559V159.666H176.63V173.274L166.236 159.666H159.685V185.376ZM188.032 185.376H197.669C206.772 185.376 212.063 179.869 212.063 172.473V172.377C212.063 164.981 206.835 159.666 197.795 159.666H188.032V185.376ZM195.055 179.069V166.006H197.921C202.11 166.006 204.882 168.375 204.882 172.505V172.569C204.882 176.732 202.11 179.069 197.921 179.069H195.055ZM211.874 185.376H219.244L221.039 180.798H230.803L232.63 185.376H240.158L229.386 159.506H222.614L211.874 185.376ZM223.087 175.259L225.953 167.927L228.756 175.259H223.087ZM252.473 191.748L254.488 185.825C259.307 185.473 262.142 183.199 264.347 180.093L259.087 176.283C257.575 178.14 256 179.389 253.386 179.389C249.827 179.389 247.339 176.379 247.339 172.537V172.473C247.339 168.727 249.827 165.653 253.386 165.653C255.78 165.653 257.449 166.838 258.898 168.663L264.189 164.533C261.953 161.363 258.614 159.154 253.449 159.154C245.795 159.154 240.126 165.045 240.126 172.537V172.601C240.126 179.069 244.221 184.096 249.858 185.505L247.055 189.379L252.473 191.748ZM265.165 185.376H272.535L274.331 180.798H284.095L285.921 185.376H293.449L282.677 159.506H275.906L265.165 185.376ZM276.378 175.259L279.244 167.927L282.079 175.259H276.378ZM274.866 157.841C275.339 156.656 275.78 156.112 276.787 156.112C277.953 156.112 280.567 157.553 282.74 157.553C285.197 157.553 286.52 155.76 287.276 152.11L283.969 151.181C283.496 152.334 283.118 152.878 282.11 152.878C280.913 152.878 278.299 151.437 276.126 151.437C273.638 151.437 272.378 153.294 271.591 156.912L274.866 157.841ZM306.992 185.889C314.803 185.889 320.661 179.901 320.661 172.537V172.473C320.661 165.077 314.866 159.154 307.055 159.154C299.276 159.154 293.417 165.141 293.417 172.537V172.601C293.417 179.997 299.181 185.889 306.992 185.889ZM307.055 179.485C303.244 179.485 300.598 176.251 300.598 172.537V172.473C300.598 168.759 303.15 165.589 306.992 165.589C310.866 165.589 313.512 168.823 313.512 172.537V172.601C313.512 176.315 310.929 179.485 307.055 179.485ZM118.803 225.495C124.945 225.495 129.039 222.389 129.039 217.138V217.042C129.039 212.24 125.417 210.319 119.622 209.038C116.095 208.237 115.244 207.725 115.244 206.54V206.476C115.244 205.548 116.063 204.811 117.764 204.811C120 204.811 122.551 205.708 124.85 207.341L128.347 202.314C125.606 200.073 122.236 198.92 117.953 198.92C111.874 198.92 108.158 202.346 108.158 207.149V207.213C108.158 212.496 112.315 214.033 117.701 215.281C121.134 216.082 121.953 216.69 121.953 217.747V217.811C121.953 218.931 120.945 219.572 119.087 219.572C116.158 219.572 113.354 218.515 110.866 216.498L106.961 221.237C110.079 224.054 114.331 225.495 118.803 225.495ZM145.165 225.559C152.976 225.559 158.803 219.572 158.803 212.208V212.144C158.803 204.747 153.039 198.824 145.228 198.824C137.417 198.824 131.559 204.811 131.559 212.208V212.272C131.559 219.668 137.354 225.559 145.165 225.559ZM145.228 219.156C141.386 219.156 138.772 215.922 138.772 212.208V212.144C138.772 208.43 141.323 205.26 145.165 205.26C149.039 205.26 151.654 208.494 151.654 212.208V212.272C151.654 215.986 149.102 219.156 145.228 219.156ZM173.858 225.527C181.039 225.527 185.701 221.909 185.701 213.584V199.336H178.583V213.809C178.583 217.427 176.724 219.092 173.921 219.092C171.087 219.092 169.26 217.331 169.26 213.648V199.336H162.142V213.777C162.142 221.813 166.646 225.527 173.858 225.527ZM199.78 225.495C205.921 225.495 210.016 222.389 210.016 217.138V217.042C210.016 212.24 206.394 210.319 200.598 209.038C197.071 208.237 196.221 207.725 196.221 206.54V206.476C196.221 205.548 197.039 204.811 198.74 204.811C200.976 204.811 203.528 205.708 205.827 207.341L209.323 202.314C206.583 200.073 203.213 198.92 198.929 198.92C192.85 198.92 189.134 202.346 189.134 207.149V207.213C189.134 212.496 193.291 214.033 198.677 215.281C202.11 216.082 202.929 216.69 202.929 217.747V217.811C202.929 218.931 201.921 219.572 200.032 219.572C197.102 219.572 194.331 218.515 191.843 216.498L187.937 221.237C191.055 224.054 195.307 225.495 199.78 225.495ZM210.835 225.047H218.205L220.032 220.468H229.795L231.622 225.047H239.15L228.378 199.176H221.606L210.835 225.047ZM222.079 214.929L224.945 207.597L227.748 214.929H222.079ZM217.48 197.319H222.079L224.945 195.366L227.78 197.319H232.504L228.032 191.844H221.953L217.48 197.319ZM241.606 225.047H248.535V210.959L259.339 225.047H265.48V199.336H258.551V212.944L248.126 199.336H241.606V225.047ZM269.953 225.047H279.559C288.661 225.047 293.984 219.54 293.984 212.144V212.048C293.984 204.619 288.756 199.336 279.717 199.336H269.953V225.047ZM276.976 218.739V205.676H279.811C284 205.676 286.803 208.045 286.803 212.176V212.24C286.803 216.402 284 218.739 279.811 218.739H276.976ZM297.606 225.047H304.598V217.267H307.685L312.787 225.047H320.882L314.835 216.082C317.984 214.737 320.032 212.144 320.032 208.205V208.109C320.032 205.58 319.276 203.595 317.795 202.122C316.095 200.361 313.417 199.336 309.575 199.336H297.606V225.047ZM304.598 211.695V205.516H309.197C311.559 205.516 313.008 206.54 313.008 208.558V208.654C313.008 210.511 311.622 211.695 309.228 211.695H304.598ZM321.102 225.047H328.473L330.268 220.468H340.032L341.858 225.047H349.386L338.614 199.176H331.843L321.102 225.047ZM332.315 214.929L335.181 207.597L337.984 214.929H332.315ZM351.843 225.047H361.449C370.551 225.047 375.874 219.54 375.874 212.144V212.048C375.874 204.619 370.614 199.336 361.606 199.336H351.843V225.047ZM358.835 218.739V205.676H361.701C365.89 205.676 368.661 208.045 368.661 212.176V212.24C368.661 216.402 365.89 218.739 361.701 218.739H358.835ZM379.465 225.047H400V218.996H386.425V214.929H398.551V209.294H386.425V205.42H399.811V199.336H379.465V225.047Z" fill="#033874"/>
<path fill-rule="evenodd" clip-rule="evenodd" d="M0 151.181H95.874V246.275H0V151.181ZM80.1575 154.319V183.936H40.4409C33.9528 185.921 34.1102 192.965 40.4409 196.071H80.1575V216.306C74.7086 234.748 61.1653 239.071 42.7087 243.137H16.1575V212.592H53.6693C58.2992 211.407 59.685 205.132 53.6693 202.506H16.1575V181.246C19.5591 166.87 32.3465 157.905 54.5512 154.319H80.1575Z" fill="#033874"/>
<path fill-rule="evenodd" clip-rule="evenodd" d="M106.961 241.024H110.331C113.039 241.024 114.929 239.103 114.929 236.638V236.606C114.929 234.14 113.039 232.251 110.331 232.251H106.961V241.024ZM108.882 239.295V234.012H110.331C111.906 234.012 112.945 235.101 112.945 236.638V236.67C112.945 238.238 111.906 239.295 110.331 239.295H108.882ZM116.976 241.024H123.559V239.327H118.866V237.47H122.961V235.741H118.866V233.98H123.496V232.251H116.976V241.024ZM128.221 241.024H130.173L130.961 239.071H134.614L135.402 241.024H137.386L133.669 232.187H131.937L128.221 241.024ZM131.622 237.374L132.787 234.524L133.921 237.374H131.622ZM139.087 241.024H140.976V238.399H142.425C144.378 238.399 145.921 237.342 145.921 235.325V235.293C145.921 233.5 144.693 232.251 142.614 232.251H139.087V241.024ZM140.976 236.67V234.012H142.457C143.402 234.012 144 234.46 144 235.325V235.357C144 236.093 143.433 236.67 142.488 236.67H140.976ZM151.906 241.184C154.583 241.184 156.504 239.135 156.504 236.638V236.606C156.504 234.108 154.583 232.091 151.937 232.091C149.26 232.091 147.307 234.14 147.307 236.638V236.67C147.307 239.167 149.228 241.184 151.906 241.184ZM151.937 239.391C150.394 239.391 149.323 238.142 149.323 236.638V236.606C149.323 235.101 150.362 233.884 151.906 233.884C153.417 233.884 154.52 235.133 154.52 236.638V236.67C154.52 238.174 153.449 239.391 151.937 239.391ZM158.646 241.024H160.567V232.251H158.646V241.024ZM167.276 241.184C169.953 241.184 171.874 239.135 171.874 236.638V236.606C171.874 234.108 169.984 232.091 167.307 232.091C164.63 232.091 162.709 234.14 162.709 236.638V236.67C162.709 239.167 164.63 241.184 167.276 241.184ZM167.307 239.391C165.764 239.391 164.693 238.142 164.693 236.638V236.606C164.693 235.101 165.764 233.884 167.276 233.884C168.819 233.884 169.89 235.133 169.89 236.638V236.67C169.89 238.174 168.85 239.391 167.307 239.391ZM176.535 241.024H178.488L179.276 239.071H182.929L183.717 241.024H185.701L181.984 232.187H180.252L176.535 241.024ZM179.937 237.374L181.102 234.524L182.236 237.374H179.937ZM191.055 241.184C193.701 241.184 195.654 239.135 195.654 236.638V236.606C195.654 234.108 193.732 232.091 191.055 232.091C188.41 232.091 186.457 234.14 186.457 236.638V236.67C186.457 239.167 188.378 241.184 191.055 241.184ZM191.055 239.391C189.543 239.391 188.441 238.142 188.441 236.638V236.606C188.441 235.101 189.512 233.884 191.055 233.884C192.567 233.884 193.669 235.133 193.669 236.638V236.67C193.669 238.174 192.598 239.391 191.055 239.391ZM201.039 241.024H204.41C207.118 241.024 209.008 239.103 209.008 236.638V236.606C209.008 234.14 207.118 232.251 204.41 232.251H201.039V241.024ZM202.929 239.295V234.012H204.41C205.984 234.012 207.024 235.101 207.024 236.638V236.67C207.024 238.238 205.984 239.295 204.41 239.295H202.929ZM211.055 241.024H217.638V239.327H212.945V237.47H217.039V235.741H212.945V233.98H217.575V232.251H211.055V241.024ZM222.772 241.152C224.661 241.152 225.953 240.192 225.953 238.431C225.953 236.894 224.976 236.253 223.213 235.773C221.732 235.389 221.354 235.197 221.354 234.62V234.588C221.354 234.172 221.732 233.82 222.457 233.82C223.181 233.82 223.937 234.172 224.693 234.716L225.701 233.244C224.819 232.539 223.748 232.123 222.488 232.123C220.724 232.123 219.465 233.18 219.465 234.78V234.812C219.465 236.541 220.598 237.022 222.331 237.502C223.78 237.854 224.063 238.11 224.063 238.591V238.623C224.063 239.135 223.591 239.455 222.835 239.455C221.827 239.455 221.008 239.039 220.252 238.399L219.118 239.743C220.158 240.704 221.48 241.152 222.772 241.152ZM227.969 241.024H234.551V239.327H229.858V237.47H233.953V235.741H229.858V233.98H234.488V232.251H227.969V241.024ZM236.63 241.024H238.488V235.453L242.677 241.024H244.284V232.251H242.425V237.662L238.362 232.251H236.63V241.024ZM249.48 241.088H251.181L254.677 232.251H252.63L250.362 238.431L248.095 232.251H246.016L249.48 241.088ZM260 241.184C262.677 241.184 264.63 239.135 264.63 236.638V236.606C264.63 234.108 262.709 232.091 260.032 232.091C257.386 232.091 255.433 234.14 255.433 236.638V236.67C255.433 239.167 257.354 241.184 260 241.184ZM260.032 239.391C258.52 239.391 257.417 238.142 257.417 236.638V236.606C257.417 235.101 258.488 233.884 260 233.884C261.543 233.884 262.614 235.133 262.614 236.638V236.67C262.614 238.174 261.575 239.391 260.032 239.391ZM266.677 241.024H272.882V239.295H268.567V232.251H266.677V241.024ZM276.032 241.088H277.701L281.197 232.251H279.15L276.882 238.431L274.614 232.251H272.535L276.032 241.088ZM282.992 241.024H284.882V232.251H282.992V241.024ZM287.402 241.024H289.291V235.325L291.685 239.039H291.748L294.173 235.293V241.024H296.063V232.251H294.016L291.748 235.965L289.48 232.251H287.402V241.024ZM298.488 241.024H305.071V239.327H300.378V237.47H304.473V235.741H300.378V233.98H305.008V232.251H298.488V241.024ZM307.15 241.024H309.008V235.453L313.197 241.024H314.835V232.251H312.945V237.662L308.882 232.251H307.15V241.024ZM319.276 241.024H321.165V234.044H323.811V232.251H316.661V234.044H319.276V241.024ZM329.449 241.184C332.126 241.184 334.079 239.135 334.079 236.638V236.606C334.079 234.108 332.158 232.091 329.48 232.091C326.835 232.091 324.882 234.14 324.882 236.638V236.67C324.882 239.167 326.803 241.184 329.449 241.184ZM329.48 239.391C327.969 239.391 326.866 238.142 326.866 236.638V236.606C326.866 235.101 327.937 233.884 329.449 233.884C330.992 233.884 332.063 235.133 332.063 236.638V236.67C332.063 238.174 331.024 239.391 329.48 239.391ZM339.465 241.024H342.835C345.543 241.024 347.433 239.103 347.433 236.638V236.606C347.433 234.14 345.543 232.251 342.835 232.251H339.465V241.024ZM341.354 239.295V234.012H342.835C344.378 234.012 345.449 235.101 345.449 236.638V236.67C345.449 238.238 344.378 239.295 342.835 239.295H341.354ZM348.126 241.024H350.079L350.866 239.071H354.52L355.307 241.024H357.291L353.575 232.187H351.843L348.126 241.024ZM351.528 237.374L352.693 234.524L353.827 237.374H351.528ZM365.921 241.184C368.252 241.184 369.732 239.871 369.732 237.214V232.251H367.811V237.278C367.811 238.687 367.118 239.391 365.953 239.391C364.787 239.391 364.095 238.655 364.095 237.214V232.251H362.173V237.278C362.173 239.871 363.622 241.184 365.921 241.184ZM372.032 241.024H373.921V237.63H378.047V235.869H373.921V234.012H378.614V232.251H372.032V241.024ZM380.504 241.024H382.362V235.325L384.756 239.039H384.819L387.244 235.293V241.024H389.134V232.251H387.087L384.819 235.965L382.551 232.251H380.504V241.024ZM390.835 241.024H392.787L393.575 239.071H397.228L398.016 241.024H400L396.284 232.187H394.551L390.835 241.024ZM394.236 237.374L395.402 234.524L396.535 237.374H394.236Z" fill="#033874"/>
</svg>
