<svg width="571" height="200" viewBox="0 0 571 200" fill="none" xmlns="http://www.w3.org/2000/svg">
<rect width="571" height="200" fill="white"/>
<path d="M7.8005 32.8H13.6325V58H7.8005V32.8ZM49.3203 53.32V58H29.8083V32.8H48.8523V37.48H35.6043V42.952H47.3043V47.488H35.6043V53.32H49.3203ZM65.3367 38.344C67.7367 38.344 69.6687 39.064 71.1327 40.504C72.6207 41.944 73.3647 44.08 73.3647 46.912V58H67.7487V47.776C67.7487 46.24 67.4127 45.1 66.7407 44.356C66.0687 43.588 65.0967 43.204 63.8247 43.204C62.4087 43.204 61.2807 43.648 60.4407 44.536C59.6007 45.4 59.1807 46.696 59.1807 48.424V58H53.5647V38.632H58.9287V40.9C59.6727 40.084 60.5967 39.46 61.7007 39.028C62.8047 38.572 64.0167 38.344 65.3367 38.344ZM88.0262 58.288C85.9622 58.288 84.1022 57.868 82.4462 57.028C80.8142 56.164 79.5302 54.976 78.5942 53.464C77.6822 51.952 77.2262 50.236 77.2262 48.316C77.2262 46.396 77.6822 44.68 78.5942 43.168C79.5302 41.656 80.8142 40.48 82.4462 39.64C84.1022 38.776 85.9622 38.344 88.0262 38.344C90.0662 38.344 91.8422 38.776 93.3542 39.64C94.8902 40.48 96.0062 41.692 96.7022 43.276L92.3462 45.616C91.3382 43.84 89.8862 42.952 87.9902 42.952C86.5262 42.952 85.3142 43.432 84.3542 44.392C83.3942 45.352 82.9142 46.66 82.9142 48.316C82.9142 49.972 83.3942 51.28 84.3542 52.24C85.3142 53.2 86.5262 53.68 87.9902 53.68C89.9102 53.68 91.3622 52.792 92.3462 51.016L96.7022 53.392C96.0062 54.928 94.8902 56.128 93.3542 56.992C91.8422 57.856 90.0662 58.288 88.0262 58.288ZM108.906 58.288C106.866 58.288 105.03 57.868 103.398 57.028C101.79 56.164 100.53 54.976 99.6177 53.464C98.7057 51.952 98.2497 50.236 98.2497 48.316C98.2497 46.396 98.7057 44.68 99.6177 43.168C100.53 41.656 101.79 40.48 103.398 39.64C105.03 38.776 106.866 38.344 108.906 38.344C110.946 38.344 112.77 38.776 114.378 39.64C115.986 40.48 117.246 41.656 118.158 43.168C119.07 44.68 119.526 46.396 119.526 48.316C119.526 50.236 119.07 51.952 118.158 53.464C117.246 54.976 115.986 56.164 114.378 57.028C112.77 57.868 110.946 58.288 108.906 58.288ZM108.906 53.68C110.346 53.68 111.522 53.2 112.434 52.24C113.37 51.256 113.838 49.948 113.838 48.316C113.838 46.684 113.37 45.388 112.434 44.428C111.522 43.444 110.346 42.952 108.906 42.952C107.466 42.952 106.278 43.444 105.342 44.428C104.406 45.388 103.938 46.684 103.938 48.316C103.938 49.948 104.406 51.256 105.342 52.24C106.278 53.2 107.466 53.68 108.906 53.68ZM135.052 38.344C137.452 38.344 139.384 39.064 140.848 40.504C142.336 41.944 143.08 44.08 143.08 46.912V58H137.464V47.776C137.464 46.24 137.128 45.1 136.456 44.356C135.784 43.588 134.812 43.204 133.54 43.204C132.124 43.204 130.996 43.648 130.156 44.536C129.316 45.4 128.896 46.696 128.896 48.424V58H123.28V38.632H128.644V40.9C129.388 40.084 130.312 39.46 131.416 39.028C132.52 38.572 133.732 38.344 135.052 38.344ZM160.662 57.064C160.11 57.472 159.426 57.784 158.61 58C157.818 58.192 156.978 58.288 156.09 58.288C153.786 58.288 151.998 57.7 150.726 56.524C149.478 55.348 148.854 53.62 148.854 51.34V43.384H145.866V39.064H148.854V34.348H154.47V39.064H159.294V43.384H154.47V51.268C154.47 52.084 154.674 52.72 155.082 53.176C155.514 53.608 156.114 53.824 156.882 53.824C157.77 53.824 158.526 53.584 159.15 53.104L160.662 57.064ZM169.179 41.188C169.851 40.252 170.751 39.544 171.879 39.064C173.031 38.584 174.351 38.344 175.839 38.344V43.528C175.215 43.48 174.795 43.456 174.579 43.456C172.971 43.456 171.711 43.912 170.799 44.824C169.887 45.712 169.431 47.056 169.431 48.856V58H163.815V38.632H169.179V41.188ZM188.218 58.288C186.178 58.288 184.342 57.868 182.71 57.028C181.102 56.164 179.842 54.976 178.93 53.464C178.018 51.952 177.562 50.236 177.562 48.316C177.562 46.396 178.018 44.68 178.93 43.168C179.842 41.656 181.102 40.48 182.71 39.64C184.342 38.776 186.178 38.344 188.218 38.344C190.258 38.344 192.082 38.776 193.69 39.64C195.298 40.48 196.558 41.656 197.47 43.168C198.382 44.68 198.838 46.396 198.838 48.316C198.838 50.236 198.382 51.952 197.47 53.464C196.558 54.976 195.298 56.164 193.69 57.028C192.082 57.868 190.258 58.288 188.218 58.288ZM188.218 53.68C189.658 53.68 190.834 53.2 191.746 52.24C192.682 51.256 193.15 49.948 193.15 48.316C193.15 46.684 192.682 45.388 191.746 44.428C190.834 43.444 189.658 42.952 188.218 42.952C186.778 42.952 185.59 43.444 184.654 44.428C183.718 45.388 183.25 46.684 183.25 48.316C183.25 49.948 183.718 51.256 184.654 52.24C185.59 53.2 186.778 53.68 188.218 53.68ZM219.303 58.288C217.695 58.288 216.123 58.096 214.587 57.712C213.051 57.304 211.827 56.8 210.915 56.2L212.787 52.168C213.651 52.72 214.695 53.176 215.919 53.536C217.143 53.872 218.343 54.04 219.519 54.04C221.895 54.04 223.083 53.452 223.083 52.276C223.083 51.724 222.759 51.328 222.111 51.088C221.463 50.848 220.467 50.644 219.123 50.476C217.539 50.236 216.231 49.96 215.199 49.648C214.167 49.336 213.267 48.784 212.499 47.992C211.755 47.2 211.383 46.072 211.383 44.608C211.383 43.384 211.731 42.304 212.427 41.368C213.147 40.408 214.179 39.664 215.523 39.136C216.891 38.608 218.499 38.344 220.347 38.344C221.715 38.344 223.071 38.5 224.415 38.812C225.783 39.1 226.911 39.508 227.799 40.036L225.927 44.032C224.223 43.072 222.363 42.592 220.347 42.592C219.147 42.592 218.247 42.76 217.647 43.096C217.047 43.432 216.747 43.864 216.747 44.392C216.747 44.992 217.071 45.412 217.719 45.652C218.367 45.892 219.399 46.12 220.815 46.336C222.399 46.6 223.695 46.888 224.703 47.2C225.711 47.488 226.587 48.028 227.331 48.82C228.075 49.612 228.447 50.716 228.447 52.132C228.447 53.332 228.087 54.4 227.367 55.336C226.647 56.272 225.591 57.004 224.199 57.532C222.831 58.036 221.199 58.288 219.303 58.288ZM241.128 58.288C239.088 58.288 237.252 57.868 235.62 57.028C234.012 56.164 232.752 54.976 231.84 53.464C230.928 51.952 230.472 50.236 230.472 48.316C230.472 46.396 230.928 44.68 231.84 43.168C232.752 41.656 234.012 40.48 235.62 39.64C237.252 38.776 239.088 38.344 241.128 38.344C243.168 38.344 244.992 38.776 246.6 39.64C248.208 40.48 249.468 41.656 250.38 43.168C251.292 44.68 251.748 46.396 251.748 48.316C251.748 50.236 251.292 51.952 250.38 53.464C249.468 54.976 248.208 56.164 246.6 57.028C244.992 57.868 243.168 58.288 241.128 58.288ZM241.128 53.68C242.568 53.68 243.744 53.2 244.656 52.24C245.592 51.256 246.06 49.948 246.06 48.316C246.06 46.684 245.592 45.388 244.656 44.428C243.744 43.444 242.568 42.952 241.128 42.952C239.688 42.952 238.5 43.444 237.564 44.428C236.628 45.388 236.16 46.684 236.16 48.316C236.16 49.948 236.628 51.256 237.564 52.24C238.5 53.2 239.688 53.68 241.128 53.68ZM266.95 38.344C268.75 38.344 270.382 38.764 271.846 39.604C273.334 40.42 274.498 41.584 275.338 43.096C276.178 44.584 276.598 46.324 276.598 48.316C276.598 50.308 276.178 52.06 275.338 53.572C274.498 55.06 273.334 56.224 271.846 57.064C270.382 57.88 268.75 58.288 266.95 58.288C264.286 58.288 262.258 57.448 260.866 55.768V58H255.502V31.288H261.118V40.684C262.534 39.124 264.478 38.344 266.95 38.344ZM265.978 53.68C267.418 53.68 268.594 53.2 269.506 52.24C270.442 51.256 270.91 49.948 270.91 48.316C270.91 46.684 270.442 45.388 269.506 44.428C268.594 43.444 267.418 42.952 265.978 42.952C264.538 42.952 263.35 43.444 262.414 44.428C261.502 45.388 261.046 46.684 261.046 48.316C261.046 49.948 261.502 51.256 262.414 52.24C263.35 53.2 264.538 53.68 265.978 53.68ZM285.722 41.188C286.394 40.252 287.294 39.544 288.422 39.064C289.574 38.584 290.894 38.344 292.382 38.344V43.528C291.758 43.48 291.338 43.456 291.122 43.456C289.514 43.456 288.254 43.912 287.342 44.824C286.43 45.712 285.974 47.056 285.974 48.856V58H280.358V38.632H285.722V41.188ZM314.517 48.388C314.517 48.46 314.481 48.964 314.409 49.9H299.757C300.021 51.1 300.645 52.048 301.629 52.744C302.613 53.44 303.837 53.788 305.301 53.788C306.309 53.788 307.197 53.644 307.965 53.356C308.757 53.044 309.489 52.564 310.161 51.916L313.149 55.156C311.325 57.244 308.661 58.288 305.157 58.288C302.973 58.288 301.041 57.868 299.361 57.028C297.681 56.164 296.385 54.976 295.473 53.464C294.561 51.952 294.105 50.236 294.105 48.316C294.105 46.42 294.549 44.716 295.437 43.204C296.349 41.668 297.585 40.48 299.145 39.64C300.729 38.776 302.493 38.344 304.437 38.344C306.333 38.344 308.049 38.752 309.585 39.568C311.121 40.384 312.321 41.56 313.185 43.096C314.073 44.608 314.517 46.372 314.517 48.388ZM304.473 42.592C303.201 42.592 302.133 42.952 301.269 43.672C300.405 44.392 299.877 45.376 299.685 46.624H309.225C309.033 45.4 308.505 44.428 307.641 43.708C306.777 42.964 305.721 42.592 304.473 42.592ZM348.359 53.32V58H328.847V32.8H347.891V37.48H334.643V42.952H346.343V47.488H334.643V53.32H348.359ZM364.67 58L360.422 52.06L356.03 58H349.91L357.362 48.244L350.162 38.632H356.462L360.566 44.284L364.778 38.632H370.754L363.554 48.1L371.042 58H364.67ZM385.216 38.344C387.016 38.344 388.648 38.764 390.112 39.604C391.6 40.42 392.764 41.584 393.604 43.096C394.444 44.584 394.864 46.324 394.864 48.316C394.864 50.308 394.444 52.06 393.604 53.572C392.764 55.06 391.6 56.224 390.112 57.064C388.648 57.88 387.016 58.288 385.216 58.288C382.744 58.288 380.8 57.508 379.384 55.948V64.984H373.768V38.632H379.132V40.864C380.524 39.184 382.552 38.344 385.216 38.344ZM384.244 53.68C385.684 53.68 386.86 53.2 387.772 52.24C388.708 51.256 389.176 49.948 389.176 48.316C389.176 46.684 388.708 45.388 387.772 44.428C386.86 43.444 385.684 42.952 384.244 42.952C382.804 42.952 381.616 43.444 380.68 44.428C379.768 45.388 379.312 46.684 379.312 48.316C379.312 49.948 379.768 51.256 380.68 52.24C381.616 53.2 382.804 53.68 384.244 53.68ZM417.595 48.388C417.595 48.46 417.559 48.964 417.487 49.9H402.835C403.099 51.1 403.723 52.048 404.707 52.744C405.691 53.44 406.915 53.788 408.379 53.788C409.387 53.788 410.275 53.644 411.043 53.356C411.835 53.044 412.567 52.564 413.239 51.916L416.227 55.156C414.403 57.244 411.739 58.288 408.235 58.288C406.051 58.288 404.119 57.868 402.439 57.028C400.759 56.164 399.463 54.976 398.551 53.464C397.639 51.952 397.183 50.236 397.183 48.316C397.183 46.42 397.627 44.716 398.515 43.204C399.427 41.668 400.663 40.48 402.223 39.64C403.807 38.776 405.571 38.344 407.515 38.344C409.411 38.344 411.127 38.752 412.663 39.568C414.199 40.384 415.399 41.56 416.263 43.096C417.151 44.608 417.595 46.372 417.595 48.388ZM407.551 42.592C406.279 42.592 405.211 42.952 404.347 43.672C403.483 44.392 402.955 45.376 402.763 46.624H412.303C412.111 45.4 411.583 44.428 410.719 43.708C409.855 42.964 408.799 42.592 407.551 42.592ZM426.698 41.188C427.37 40.252 428.27 39.544 429.398 39.064C430.55 38.584 431.87 38.344 433.358 38.344V43.528C432.734 43.48 432.314 43.456 432.098 43.456C430.49 43.456 429.23 43.912 428.318 44.824C427.406 45.712 426.95 47.056 426.95 48.856V58H421.334V38.632H426.698V41.188ZM436.697 38.632H442.313V58H436.697V38.632ZM439.505 35.932C438.473 35.932 437.633 35.632 436.985 35.032C436.337 34.432 436.013 33.688 436.013 32.8C436.013 31.912 436.337 31.168 436.985 30.568C437.633 29.968 438.473 29.668 439.505 29.668C440.537 29.668 441.377 29.956 442.025 30.532C442.673 31.108 442.997 31.828 442.997 32.692C442.997 33.628 442.673 34.408 442.025 35.032C441.377 35.632 440.537 35.932 439.505 35.932ZM466.498 48.388C466.498 48.46 466.462 48.964 466.39 49.9H451.738C452.002 51.1 452.626 52.048 453.61 52.744C454.594 53.44 455.818 53.788 457.282 53.788C458.29 53.788 459.178 53.644 459.946 53.356C460.738 53.044 461.47 52.564 462.142 51.916L465.13 55.156C463.306 57.244 460.642 58.288 457.138 58.288C454.954 58.288 453.022 57.868 451.342 57.028C449.662 56.164 448.366 54.976 447.454 53.464C446.542 51.952 446.086 50.236 446.086 48.316C446.086 46.42 446.53 44.716 447.418 43.204C448.33 41.668 449.566 40.48 451.126 39.64C452.71 38.776 454.474 38.344 456.418 38.344C458.314 38.344 460.03 38.752 461.566 39.568C463.102 40.384 464.302 41.56 465.166 43.096C466.054 44.608 466.498 46.372 466.498 48.388ZM456.454 42.592C455.182 42.592 454.114 42.952 453.25 43.672C452.386 44.392 451.858 45.376 451.666 46.624H461.206C461.014 45.4 460.486 44.428 459.622 43.708C458.758 42.964 457.702 42.592 456.454 42.592ZM459.442 36.148L456.31 33.412L453.178 36.148H449.074L453.826 30.964H458.794L463.546 36.148H459.442ZM482.009 38.344C484.409 38.344 486.341 39.064 487.805 40.504C489.293 41.944 490.037 44.08 490.037 46.912V58H484.421V47.776C484.421 46.24 484.085 45.1 483.413 44.356C482.741 43.588 481.769 43.204 480.497 43.204C479.081 43.204 477.953 43.648 477.113 44.536C476.273 45.4 475.853 46.696 475.853 48.424V58H470.237V38.632H475.601V40.9C476.345 40.084 477.269 39.46 478.373 39.028C479.477 38.572 480.689 38.344 482.009 38.344ZM504.698 58.288C502.634 58.288 500.774 57.868 499.118 57.028C497.486 56.164 496.202 54.976 495.266 53.464C494.354 51.952 493.898 50.236 493.898 48.316C493.898 46.396 494.354 44.68 495.266 43.168C496.202 41.656 497.486 40.48 499.118 39.64C500.774 38.776 502.634 38.344 504.698 38.344C506.738 38.344 508.514 38.776 510.026 39.64C511.562 40.48 512.678 41.692 513.374 43.276L509.018 45.616C508.01 43.84 506.558 42.952 504.662 42.952C503.198 42.952 501.986 43.432 501.026 44.392C500.066 45.352 499.586 46.66 499.586 48.316C499.586 49.972 500.066 51.28 501.026 52.24C501.986 53.2 503.198 53.68 504.662 53.68C506.582 53.68 508.034 52.792 509.018 51.016L513.374 53.392C512.678 54.928 511.562 56.128 510.026 56.992C508.514 57.856 506.738 58.288 504.698 58.288ZM516.608 38.632H522.224V58H516.608V38.632ZM519.416 35.932C518.384 35.932 517.544 35.632 516.896 35.032C516.248 34.432 515.924 33.688 515.924 32.8C515.924 31.912 516.248 31.168 516.896 30.568C517.544 29.968 518.384 29.668 519.416 29.668C520.448 29.668 521.288 29.956 521.936 30.532C522.584 31.108 522.908 31.828 522.908 32.692C522.908 33.628 522.584 34.408 521.936 35.032C521.288 35.632 520.448 35.932 519.416 35.932ZM535.248 38.344C538.248 38.344 540.552 39.064 542.16 40.504C543.768 41.92 544.572 44.068 544.572 46.948V58H539.316V55.588C538.26 57.388 536.292 58.288 533.412 58.288C531.924 58.288 530.628 58.036 529.524 57.532C528.444 57.028 527.616 56.332 527.04 55.444C526.464 54.556 526.176 53.548 526.176 52.42C526.176 50.62 526.848 49.204 528.192 48.172C529.56 47.14 531.66 46.624 534.492 46.624H538.956C538.956 45.4 538.584 44.464 537.84 43.816C537.096 43.144 535.98 42.808 534.492 42.808C533.46 42.808 532.44 42.976 531.432 43.312C530.448 43.624 529.608 44.056 528.912 44.608L526.896 40.684C527.952 39.94 529.212 39.364 530.676 38.956C532.164 38.548 533.688 38.344 535.248 38.344ZM534.816 54.508C535.776 54.508 536.628 54.292 537.372 53.86C538.116 53.404 538.644 52.744 538.956 51.88V49.9H535.104C532.8 49.9 531.648 50.656 531.648 52.168C531.648 52.888 531.924 53.464 532.476 53.896C533.052 54.304 533.832 54.508 534.816 54.508ZM556.171 58.288C554.563 58.288 552.991 58.096 551.455 57.712C549.919 57.304 548.695 56.8 547.783 56.2L549.655 52.168C550.519 52.72 551.563 53.176 552.787 53.536C554.011 53.872 555.211 54.04 556.387 54.04C558.763 54.04 559.951 53.452 559.951 52.276C559.951 51.724 559.627 51.328 558.979 51.088C558.331 50.848 557.335 50.644 555.991 50.476C554.407 50.236 553.099 49.96 552.067 49.648C551.035 49.336 550.135 48.784 549.367 47.992C548.623 47.2 548.25 46.072 548.25 44.608C548.25 43.384 548.599 42.304 549.295 41.368C550.015 40.408 551.047 39.664 552.391 39.136C553.759 38.608 555.367 38.344 557.215 38.344C558.583 38.344 559.939 38.5 561.283 38.812C562.651 39.1 563.779 39.508 564.667 40.036L562.795 44.032C561.091 43.072 559.231 42.592 557.215 42.592C556.015 42.592 555.115 42.76 554.515 43.096C553.915 43.432 553.615 43.864 553.615 44.392C553.615 44.992 553.939 45.412 554.587 45.652C555.235 45.892 556.267 46.12 557.683 46.336C559.267 46.6 560.563 46.888 561.571 47.2C562.579 47.488 563.455 48.028 564.199 48.82C564.943 49.612 565.315 50.716 565.315 52.132C565.315 53.332 564.955 54.4 564.235 55.336C563.515 56.272 562.459 57.004 561.067 57.532C559.699 58.036 558.067 58.288 556.171 58.288ZM99.7012 96.6H88.0012L85.7692 102H79.7932L91.0252 76.8H96.7852L108.053 102H101.933L99.7012 96.6ZM97.8652 92.172L93.8692 82.524L89.8732 92.172H97.8652ZM119.456 102.288C117.392 102.288 115.532 101.868 113.876 101.028C112.244 100.164 110.96 98.976 110.024 97.464C109.112 95.952 108.656 94.236 108.656 92.316C108.656 90.396 109.112 88.68 110.024 87.168C110.96 85.656 112.244 84.48 113.876 83.64C115.532 82.776 117.392 82.344 119.456 82.344C121.496 82.344 123.272 82.776 124.784 83.64C126.32 84.48 127.436 85.692 128.132 87.276L123.776 89.616C122.768 87.84 121.316 86.952 119.42 86.952C117.956 86.952 116.744 87.432 115.784 88.392C114.824 89.352 114.344 90.66 114.344 92.316C114.344 93.972 114.824 95.28 115.784 96.24C116.744 97.2 117.956 97.68 119.42 97.68C121.34 97.68 122.792 96.792 123.776 95.016L128.132 97.392C127.436 98.928 126.32 100.128 124.784 100.992C123.272 101.856 121.496 102.288 119.456 102.288ZM139.177 82.344C142.177 82.344 144.481 83.064 146.089 84.504C147.697 85.92 148.501 88.068 148.501 90.948V102H143.245V99.588C142.189 101.388 140.221 102.288 137.341 102.288C135.853 102.288 134.557 102.036 133.453 101.532C132.373 101.028 131.545 100.332 130.969 99.444C130.393 98.556 130.105 97.548 130.105 96.42C130.105 94.62 130.777 93.204 132.121 92.172C133.489 91.14 135.589 90.624 138.421 90.624H142.885C142.885 89.4 142.513 88.464 141.769 87.816C141.025 87.144 139.909 86.808 138.421 86.808C137.389 86.808 136.369 86.976 135.361 87.312C134.377 87.624 133.537 88.056 132.841 88.608L130.825 84.684C131.881 83.94 133.141 83.364 134.605 82.956C136.093 82.548 137.617 82.344 139.177 82.344ZM138.745 98.508C139.705 98.508 140.557 98.292 141.301 97.86C142.045 97.404 142.573 96.744 142.885 95.88V93.9H139.033C136.729 93.9 135.577 94.656 135.577 96.168C135.577 96.888 135.853 97.464 136.405 97.896C136.981 98.304 137.761 98.508 138.745 98.508ZM173.523 75.288V102H168.159V99.768C166.767 101.448 164.751 102.288 162.111 102.288C160.287 102.288 158.631 101.88 157.143 101.064C155.679 100.248 154.527 99.084 153.687 97.572C152.847 96.06 152.427 94.308 152.427 92.316C152.427 90.324 152.847 88.572 153.687 87.06C154.527 85.548 155.679 84.384 157.143 83.568C158.631 82.752 160.287 82.344 162.111 82.344C164.583 82.344 166.515 83.124 167.907 84.684V75.288H173.523ZM163.083 97.68C164.499 97.68 165.675 97.2 166.611 96.24C167.547 95.256 168.015 93.948 168.015 92.316C168.015 90.684 167.547 89.388 166.611 88.428C165.675 87.444 164.499 86.952 163.083 86.952C161.643 86.952 160.455 87.444 159.519 88.428C158.583 89.388 158.115 90.684 158.115 92.316C158.115 93.948 158.583 95.256 159.519 96.24C160.455 97.2 161.643 97.68 163.083 97.68ZM197.693 92.388C197.693 92.46 197.657 92.964 197.585 93.9H182.933C183.197 95.1 183.821 96.048 184.805 96.744C185.789 97.44 187.013 97.788 188.477 97.788C189.485 97.788 190.373 97.644 191.141 97.356C191.933 97.044 192.665 96.564 193.337 95.916L196.325 99.156C194.501 101.244 191.837 102.288 188.333 102.288C186.149 102.288 184.217 101.868 182.537 101.028C180.857 100.164 179.561 98.976 178.649 97.464C177.737 95.952 177.281 94.236 177.281 92.316C177.281 90.42 177.725 88.716 178.613 87.204C179.525 85.668 180.761 84.48 182.321 83.64C183.905 82.776 185.669 82.344 187.613 82.344C189.509 82.344 191.225 82.752 192.761 83.568C194.297 84.384 195.497 85.56 196.361 87.096C197.249 88.608 197.693 90.372 197.693 92.388ZM187.649 86.592C186.377 86.592 185.309 86.952 184.445 87.672C183.581 88.392 183.053 89.376 182.861 90.624H192.401C192.209 89.4 191.681 88.428 190.817 87.708C189.953 86.964 188.897 86.592 187.649 86.592ZM190.637 80.148L187.505 77.412L184.373 80.148H180.269L185.021 74.964H189.989L194.741 80.148H190.637ZM226.236 82.344C228.66 82.344 230.58 83.064 231.996 84.504C233.436 85.92 234.156 88.056 234.156 90.912V102H228.54V91.776C228.54 90.24 228.216 89.1 227.568 88.356C226.944 87.588 226.044 87.204 224.868 87.204C223.548 87.204 222.504 87.636 221.736 88.5C220.968 89.34 220.584 90.6 220.584 92.28V102H214.968V91.776C214.968 88.728 213.744 87.204 211.296 87.204C210 87.204 208.968 87.636 208.2 88.5C207.432 89.34 207.048 90.6 207.048 92.28V102H201.432V82.632H206.796V84.864C207.516 84.048 208.392 83.424 209.424 82.992C210.48 82.56 211.632 82.344 212.88 82.344C214.248 82.344 215.484 82.62 216.588 83.172C217.692 83.7 218.58 84.48 219.252 85.512C220.044 84.504 221.04 83.724 222.24 83.172C223.464 82.62 224.796 82.344 226.236 82.344ZM239.19 82.632H244.806V102H239.19V82.632ZM241.998 79.932C240.966 79.932 240.126 79.632 239.478 79.032C238.83 78.432 238.506 77.688 238.506 76.8C238.506 75.912 238.83 75.168 239.478 74.568C240.126 73.968 240.966 73.668 241.998 73.668C243.03 73.668 243.87 73.956 244.518 74.532C245.166 75.108 245.49 75.828 245.49 76.692C245.49 77.628 245.166 78.408 244.518 79.032C243.87 79.632 243.03 79.932 241.998 79.932ZM259.378 102.288C257.314 102.288 255.454 101.868 253.798 101.028C252.166 100.164 250.882 98.976 249.946 97.464C249.034 95.952 248.578 94.236 248.578 92.316C248.578 90.396 249.034 88.68 249.946 87.168C250.882 85.656 252.166 84.48 253.798 83.64C255.454 82.776 257.314 82.344 259.378 82.344C261.418 82.344 263.194 82.776 264.706 83.64C266.242 84.48 267.358 85.692 268.054 87.276L263.698 89.616C262.69 87.84 261.238 86.952 259.342 86.952C257.878 86.952 256.666 87.432 255.706 88.392C254.746 89.352 254.266 90.66 254.266 92.316C254.266 93.972 254.746 95.28 255.706 96.24C256.666 97.2 257.878 97.68 259.342 97.68C261.262 97.68 262.714 96.792 263.698 95.016L268.054 97.392C267.358 98.928 266.242 100.128 264.706 100.992C263.194 101.856 261.418 102.288 259.378 102.288ZM279.099 82.344C282.099 82.344 284.403 83.064 286.011 84.504C287.619 85.92 288.423 88.068 288.423 90.948V102H283.167V99.588C282.111 101.388 280.143 102.288 277.263 102.288C275.775 102.288 274.479 102.036 273.375 101.532C272.295 101.028 271.467 100.332 270.891 99.444C270.315 98.556 270.027 97.548 270.027 96.42C270.027 94.62 270.699 93.204 272.043 92.172C273.411 91.14 275.511 90.624 278.343 90.624H282.807C282.807 89.4 282.435 88.464 281.691 87.816C280.947 87.144 279.831 86.808 278.343 86.808C277.311 86.808 276.291 86.976 275.283 87.312C274.299 87.624 273.459 88.056 272.763 88.608L270.747 84.684C271.803 83.94 273.063 83.364 274.527 82.956C276.015 82.548 277.539 82.344 279.099 82.344ZM278.667 98.508C279.627 98.508 280.479 98.292 281.223 97.86C281.967 97.404 282.495 96.744 282.807 95.88V93.9H278.955C276.651 93.9 275.499 94.656 275.499 96.168C275.499 96.888 275.775 97.464 276.327 97.896C276.903 98.304 277.683 98.508 278.667 98.508ZM300.022 102.288C298.414 102.288 296.842 102.096 295.306 101.712C293.77 101.304 292.546 100.8 291.634 100.2L293.506 96.168C294.37 96.72 295.414 97.176 296.638 97.536C297.862 97.872 299.062 98.04 300.238 98.04C302.614 98.04 303.802 97.452 303.802 96.276C303.802 95.724 303.478 95.328 302.83 95.088C302.182 94.848 301.186 94.644 299.842 94.476C298.258 94.236 296.95 93.96 295.918 93.648C294.886 93.336 293.986 92.784 293.218 91.992C292.474 91.2 292.102 90.072 292.102 88.608C292.102 87.384 292.45 86.304 293.146 85.368C293.866 84.408 294.898 83.664 296.242 83.136C297.61 82.608 299.218 82.344 301.066 82.344C302.434 82.344 303.79 82.5 305.134 82.812C306.502 83.1 307.63 83.508 308.518 84.036L306.646 88.032C304.942 87.072 303.082 86.592 301.066 86.592C299.866 86.592 298.966 86.76 298.366 87.096C297.766 87.432 297.466 87.864 297.466 88.392C297.466 88.992 297.79 89.412 298.438 89.652C299.086 89.892 300.118 90.12 301.534 90.336C303.118 90.6 304.414 90.888 305.422 91.2C306.43 91.488 307.306 92.028 308.05 92.82C308.794 93.612 309.166 94.716 309.166 96.132C309.166 97.332 308.806 98.4 308.086 99.336C307.366 100.272 306.31 101.004 304.918 101.532C303.55 102.036 301.918 102.288 300.022 102.288ZM342.554 75.288V102H337.19V99.768C335.798 101.448 333.782 102.288 331.142 102.288C329.318 102.288 327.662 101.88 326.174 101.064C324.71 100.248 323.558 99.084 322.718 97.572C321.878 96.06 321.458 94.308 321.458 92.316C321.458 90.324 321.878 88.572 322.718 87.06C323.558 85.548 324.71 84.384 326.174 83.568C327.662 82.752 329.318 82.344 331.142 82.344C333.614 82.344 335.546 83.124 336.938 84.684V75.288H342.554ZM332.114 97.68C333.53 97.68 334.706 97.2 335.642 96.24C336.578 95.256 337.046 93.948 337.046 92.316C337.046 90.684 336.578 89.388 335.642 88.428C334.706 87.444 333.53 86.952 332.114 86.952C330.674 86.952 329.486 87.444 328.55 88.428C327.614 89.388 327.146 90.684 327.146 92.316C327.146 93.948 327.614 95.256 328.55 96.24C329.486 97.2 330.674 97.68 332.114 97.68ZM355.564 82.344C358.564 82.344 360.868 83.064 362.476 84.504C364.084 85.92 364.888 88.068 364.888 90.948V102H359.632V99.588C358.576 101.388 356.608 102.288 353.728 102.288C352.24 102.288 350.944 102.036 349.84 101.532C348.76 101.028 347.932 100.332 347.356 99.444C346.78 98.556 346.492 97.548 346.492 96.42C346.492 94.62 347.164 93.204 348.508 92.172C349.876 91.14 351.976 90.624 354.808 90.624H359.272C359.272 89.4 358.9 88.464 358.156 87.816C357.412 87.144 356.296 86.808 354.808 86.808C353.776 86.808 352.756 86.976 351.748 87.312C350.764 87.624 349.924 88.056 349.228 88.608L347.212 84.684C348.268 83.94 349.528 83.364 350.992 82.956C352.48 82.548 354.004 82.344 355.564 82.344ZM355.132 98.508C356.092 98.508 356.944 98.292 357.688 97.86C358.432 97.404 358.96 96.744 359.272 95.88V93.9H355.42C353.116 93.9 351.964 94.656 351.964 96.168C351.964 96.888 352.24 97.464 352.792 97.896C353.368 98.304 354.148 98.508 355.132 98.508ZM391.758 102.432C388.158 102.432 385.35 101.436 383.334 99.444C381.342 97.452 380.346 94.608 380.346 90.912V76.8H386.178V90.696C386.178 95.208 388.05 97.464 391.794 97.464C393.618 97.464 395.01 96.924 395.97 95.844C396.93 94.74 397.41 93.024 397.41 90.696V76.8H403.17V90.912C403.17 94.608 402.162 97.452 400.146 99.444C398.154 101.436 395.358 102.432 391.758 102.432ZM414.765 81.48V88.14H426.429V92.82H414.765V102H408.933V76.8H427.977V81.48H414.765ZM454.858 102L454.822 86.88L447.406 99.336H444.778L437.398 87.204V102H431.926V76.8H436.75L446.182 92.46L455.47 76.8H460.258L460.33 102H454.858ZM482.904 96.6H471.204L468.972 102H462.996L474.228 76.8H479.988L491.256 102H485.136L482.904 96.6ZM481.068 92.172L477.072 82.524L473.076 92.172H481.068Z" fill="black"/>
<rect y="128" width="571" height="72" fill="black"/>
<path d="M78.3595 158.144C76.1835 158.144 74.4875 157.52 73.2715 156.272C72.0555 155.024 71.4475 153.208 71.4475 150.824V141.2H73.2235V150.752C73.2235 152.704 73.6635 154.16 74.5435 155.12C75.4235 156.08 76.6955 156.56 78.3595 156.56C80.0395 156.56 81.3195 156.08 82.1995 155.12C83.0795 154.16 83.5195 152.704 83.5195 150.752V141.2H85.2475V150.824C85.2475 153.208 84.6395 155.024 83.4235 156.272C82.2235 157.52 80.5355 158.144 78.3595 158.144ZM93.6233 158.12C92.5993 158.12 91.6153 157.976 90.6713 157.688C89.7433 157.384 89.0153 157.008 88.4873 156.56L89.2553 155.216C89.7833 155.632 90.4473 155.976 91.2473 156.248C92.0473 156.504 92.8793 156.632 93.7433 156.632C94.8953 156.632 95.7433 156.456 96.2873 156.104C96.8473 155.736 97.1273 155.224 97.1273 154.568C97.1273 154.104 96.9753 153.744 96.6713 153.488C96.3673 153.216 95.9833 153.016 95.5193 152.888C95.0553 152.744 94.4393 152.608 93.6713 152.48C92.6473 152.288 91.8233 152.096 91.1993 151.904C90.5753 151.696 90.0393 151.352 89.5913 150.872C89.1593 150.392 88.9433 149.728 88.9433 148.88C88.9433 147.824 89.3833 146.96 90.2633 146.288C91.1433 145.616 92.3673 145.28 93.9353 145.28C94.7513 145.28 95.5673 145.392 96.3833 145.616C97.1993 145.824 97.8713 146.104 98.3993 146.456L97.6553 147.824C96.6153 147.104 95.3753 146.744 93.9353 146.744C92.8473 146.744 92.0233 146.936 91.4633 147.32C90.9193 147.704 90.6473 148.208 90.6473 148.832C90.6473 149.312 90.7993 149.696 91.1033 149.984C91.4233 150.272 91.8153 150.488 92.2793 150.632C92.7433 150.76 93.3833 150.896 94.1993 151.04C95.2073 151.232 96.0153 151.424 96.6233 151.616C97.2313 151.808 97.7513 152.136 98.1833 152.6C98.6153 153.064 98.8313 153.704 98.8313 154.52C98.8313 155.624 98.3673 156.504 97.4393 157.16C96.5273 157.8 95.2553 158.12 93.6233 158.12ZM107.141 158.12C105.925 158.12 104.829 157.848 103.853 157.304C102.877 156.744 102.109 155.976 101.549 155C100.989 154.024 100.709 152.92 100.709 151.688C100.709 150.456 100.989 149.352 101.549 148.376C102.109 147.4 102.877 146.64 103.853 146.096C104.829 145.552 105.925 145.28 107.141 145.28C108.357 145.28 109.453 145.552 110.429 146.096C111.405 146.64 112.165 147.4 112.709 148.376C113.269 149.352 113.549 150.456 113.549 151.688C113.549 152.92 113.269 154.024 112.709 155C112.165 155.976 111.405 156.744 110.429 157.304C109.453 157.848 108.357 158.12 107.141 158.12ZM107.141 156.608C108.037 156.608 108.837 156.408 109.541 156.008C110.261 155.592 110.821 155.008 111.221 154.256C111.621 153.504 111.821 152.648 111.821 151.688C111.821 150.728 111.621 149.872 111.221 149.12C110.821 148.368 110.261 147.792 109.541 147.392C108.837 146.976 108.037 146.768 107.141 146.768C106.245 146.768 105.437 146.976 104.717 147.392C104.013 147.792 103.453 148.368 103.037 149.12C102.637 149.872 102.437 150.728 102.437 151.688C102.437 152.648 102.637 153.504 103.037 154.256C103.453 155.008 104.013 155.592 104.717 156.008C105.437 156.408 106.245 156.608 107.141 156.608ZM134.83 140.192V158H133.198V155.504C132.686 156.352 132.006 157 131.158 157.448C130.326 157.896 129.382 158.12 128.326 158.12C127.142 158.12 126.07 157.848 125.11 157.304C124.15 156.76 123.398 156 122.854 155.024C122.31 154.048 122.038 152.936 122.038 151.688C122.038 150.44 122.31 149.328 122.854 148.352C123.398 147.376 124.15 146.624 125.11 146.096C126.07 145.552 127.142 145.28 128.326 145.28C129.35 145.28 130.27 145.496 131.086 145.928C131.918 146.344 132.598 146.96 133.126 147.776V140.192H134.83ZM128.47 156.608C129.35 156.608 130.142 156.408 130.846 156.008C131.566 155.592 132.126 155.008 132.526 154.256C132.942 153.504 133.15 152.648 133.15 151.688C133.15 150.728 132.942 149.872 132.526 149.12C132.126 148.368 131.566 147.792 130.846 147.392C130.142 146.976 129.35 146.768 128.47 146.768C127.574 146.768 126.766 146.976 126.046 147.392C125.342 147.792 124.782 148.368 124.366 149.12C123.966 149.872 123.766 150.728 123.766 151.688C123.766 152.648 123.966 153.504 124.366 154.256C124.782 155.008 125.342 155.592 126.046 156.008C126.766 156.408 127.574 156.608 128.47 156.608ZM143.991 145.28C145.639 145.28 146.903 145.696 147.783 146.528C148.663 147.344 149.103 148.56 149.103 150.176V158H147.471V156.032C147.087 156.688 146.519 157.2 145.767 157.568C145.031 157.936 144.151 158.12 143.127 158.12C141.719 158.12 140.599 157.784 139.767 157.112C138.935 156.44 138.519 155.552 138.519 154.448C138.519 153.376 138.903 152.512 139.671 151.856C140.455 151.2 141.695 150.872 143.391 150.872H147.399V150.104C147.399 149.016 147.095 148.192 146.487 147.632C145.879 147.056 144.991 146.768 143.823 146.768C143.023 146.768 142.255 146.904 141.519 147.176C140.783 147.432 140.151 147.792 139.623 148.256L138.855 146.984C139.495 146.44 140.263 146.024 141.159 145.736C142.055 145.432 142.999 145.28 143.991 145.28ZM143.391 156.776C144.351 156.776 145.175 156.56 145.863 156.128C146.551 155.68 147.063 155.04 147.399 154.208V152.144H143.439C141.279 152.144 140.199 152.896 140.199 154.4C140.199 155.136 140.479 155.72 141.039 156.152C141.599 156.568 142.383 156.776 143.391 156.776ZM163.637 142.736H157.733V141.2H171.317V142.736H165.413V158H163.637V142.736ZM183.473 152.216H172.913C173.009 153.528 173.513 154.592 174.425 155.408C175.337 156.208 176.489 156.608 177.881 156.608C178.665 156.608 179.385 156.472 180.041 156.2C180.697 155.912 181.265 155.496 181.745 154.952L182.705 156.056C182.145 156.728 181.441 157.24 180.593 157.592C179.761 157.944 178.841 158.12 177.833 158.12C176.537 158.12 175.385 157.848 174.377 157.304C173.385 156.744 172.609 155.976 172.049 155C171.489 154.024 171.209 152.92 171.209 151.688C171.209 150.456 171.473 149.352 172.001 148.376C172.545 147.4 173.281 146.64 174.209 146.096C175.153 145.552 176.209 145.28 177.377 145.28C178.545 145.28 179.593 145.552 180.521 146.096C181.449 146.64 182.177 147.4 182.705 148.376C183.233 149.336 183.497 150.44 183.497 151.688L183.473 152.216ZM177.377 146.744C176.161 146.744 175.137 147.136 174.305 147.92C173.489 148.688 173.025 149.696 172.913 150.944H181.865C181.753 149.696 181.281 148.688 180.449 147.92C179.633 147.136 178.609 146.744 177.377 146.744ZM192.198 158.12C190.95 158.12 189.83 157.848 188.838 157.304C187.862 156.76 187.094 156 186.534 155.024C185.974 154.032 185.694 152.92 185.694 151.688C185.694 150.456 185.974 149.352 186.534 148.376C187.094 147.4 187.862 146.64 188.838 146.096C189.83 145.552 190.95 145.28 192.198 145.28C193.286 145.28 194.254 145.496 195.102 145.928C195.966 146.344 196.646 146.96 197.142 147.776L195.87 148.64C195.454 148.016 194.926 147.552 194.286 147.248C193.646 146.928 192.95 146.768 192.198 146.768C191.286 146.768 190.462 146.976 189.726 147.392C189.006 147.792 188.438 148.368 188.022 149.12C187.622 149.872 187.422 150.728 187.422 151.688C187.422 152.664 187.622 153.528 188.022 154.28C188.438 155.016 189.006 155.592 189.726 156.008C190.462 156.408 191.286 156.608 192.198 156.608C192.95 156.608 193.646 156.456 194.286 156.152C194.926 155.848 195.454 155.384 195.87 154.76L197.142 155.624C196.646 156.44 195.966 157.064 195.102 157.496C194.238 157.912 193.27 158.12 192.198 158.12ZM206.921 145.28C208.505 145.28 209.761 145.744 210.689 146.672C211.633 147.584 212.105 148.92 212.105 150.68V158H210.401V150.848C210.401 149.536 210.073 148.536 209.417 147.848C208.761 147.16 207.825 146.816 206.609 146.816C205.249 146.816 204.169 147.224 203.369 148.04C202.585 148.84 202.193 149.952 202.193 151.376V158H200.489V145.376H202.121V147.704C202.585 146.936 203.225 146.344 204.041 145.928C204.873 145.496 205.833 145.28 206.921 145.28ZM221.938 158.12C220.722 158.12 219.626 157.848 218.65 157.304C217.674 156.744 216.906 155.976 216.346 155C215.786 154.024 215.506 152.92 215.506 151.688C215.506 150.456 215.786 149.352 216.346 148.376C216.906 147.4 217.674 146.64 218.65 146.096C219.626 145.552 220.722 145.28 221.938 145.28C223.154 145.28 224.25 145.552 225.226 146.096C226.202 146.64 226.962 147.4 227.506 148.376C228.066 149.352 228.346 150.456 228.346 151.688C228.346 152.92 228.066 154.024 227.506 155C226.962 155.976 226.202 156.744 225.226 157.304C224.25 157.848 223.154 158.12 221.938 158.12ZM221.938 156.608C222.834 156.608 223.634 156.408 224.338 156.008C225.058 155.592 225.618 155.008 226.018 154.256C226.418 153.504 226.618 152.648 226.618 151.688C226.618 150.728 226.418 149.872 226.018 149.12C225.618 148.368 225.058 147.792 224.338 147.392C223.634 146.976 222.834 146.768 221.938 146.768C221.042 146.768 220.234 146.976 219.514 147.392C218.81 147.792 218.25 148.368 217.834 149.12C217.434 149.872 217.234 150.728 217.234 151.688C217.234 152.648 217.434 153.504 217.834 154.256C218.25 155.008 218.81 155.592 219.514 156.008C220.234 156.408 221.042 156.608 221.938 156.608ZM231.825 140.192H233.529V158H231.825V140.192ZM243.431 158.12C242.215 158.12 241.119 157.848 240.143 157.304C239.167 156.744 238.399 155.976 237.839 155C237.279 154.024 236.999 152.92 236.999 151.688C236.999 150.456 237.279 149.352 237.839 148.376C238.399 147.4 239.167 146.64 240.143 146.096C241.119 145.552 242.215 145.28 243.431 145.28C244.647 145.28 245.743 145.552 246.719 146.096C247.695 146.64 248.455 147.4 248.999 148.376C249.559 149.352 249.839 150.456 249.839 151.688C249.839 152.92 249.559 154.024 248.999 155C248.455 155.976 247.695 156.744 246.719 157.304C245.743 157.848 244.647 158.12 243.431 158.12ZM243.431 156.608C244.327 156.608 245.127 156.408 245.831 156.008C246.551 155.592 247.111 155.008 247.511 154.256C247.911 153.504 248.111 152.648 248.111 151.688C248.111 150.728 247.911 149.872 247.511 149.12C247.111 148.368 246.551 147.792 245.831 147.392C245.127 146.976 244.327 146.768 243.431 146.768C242.535 146.768 241.727 146.976 241.007 147.392C240.303 147.792 239.743 148.368 239.327 149.12C238.927 149.872 238.727 150.728 238.727 151.688C238.727 152.648 238.927 153.504 239.327 154.256C239.743 155.008 240.303 155.592 241.007 156.008C241.727 156.408 242.535 156.608 243.431 156.608ZM265.005 145.376V156.464C265.005 158.608 264.477 160.192 263.421 161.216C262.381 162.256 260.805 162.776 258.693 162.776C257.525 162.776 256.413 162.6 255.357 162.248C254.317 161.912 253.469 161.44 252.813 160.832L253.677 159.536C254.285 160.08 255.021 160.504 255.885 160.808C256.765 161.112 257.685 161.264 258.645 161.264C260.245 161.264 261.421 160.888 262.173 160.136C262.925 159.4 263.301 158.248 263.301 156.68V155.072C262.773 155.872 262.077 156.48 261.213 156.896C260.365 157.312 259.421 157.52 258.381 157.52C257.197 157.52 256.117 157.264 255.141 156.752C254.181 156.224 253.421 155.496 252.861 154.568C252.317 153.624 252.045 152.56 252.045 151.376C252.045 150.192 252.317 149.136 252.861 148.208C253.421 147.28 254.181 146.56 255.141 146.048C256.101 145.536 257.181 145.28 258.381 145.28C259.453 145.28 260.421 145.496 261.285 145.928C262.149 146.36 262.845 146.984 263.373 147.8V145.376H265.005ZM258.549 156.008C259.461 156.008 260.285 155.816 261.021 155.432C261.757 155.032 262.325 154.48 262.725 153.776C263.141 153.072 263.349 152.272 263.349 151.376C263.349 150.48 263.141 149.688 262.725 149C262.325 148.296 261.757 147.752 261.021 147.368C260.301 146.968 259.477 146.768 258.549 146.768C257.637 146.768 256.813 146.96 256.077 147.344C255.357 147.728 254.789 148.272 254.373 148.976C253.973 149.68 253.773 150.48 253.773 151.376C253.773 152.272 253.973 153.072 254.373 153.776C254.789 154.48 255.357 155.032 256.077 155.432C256.813 155.816 257.637 156.008 258.549 156.008ZM269.771 145.376H271.475V158H269.771V145.376ZM270.635 142.616C270.283 142.616 269.987 142.496 269.747 142.256C269.507 142.016 269.387 141.728 269.387 141.392C269.387 141.072 269.507 140.792 269.747 140.552C269.987 140.312 270.283 140.192 270.635 140.192C270.987 140.192 271.283 140.312 271.523 140.552C271.763 140.776 271.883 141.048 271.883 141.368C271.883 141.72 271.763 142.016 271.523 142.256C271.283 142.496 270.987 142.616 270.635 142.616ZM280.632 145.28C282.28 145.28 283.544 145.696 284.424 146.528C285.304 147.344 285.744 148.56 285.744 150.176V158H284.112V156.032C283.728 156.688 283.16 157.2 282.408 157.568C281.672 157.936 280.792 158.12 279.768 158.12C278.36 158.12 277.24 157.784 276.408 157.112C275.576 156.44 275.16 155.552 275.16 154.448C275.16 153.376 275.544 152.512 276.312 151.856C277.096 151.2 278.336 150.872 280.032 150.872H284.04V150.104C284.04 149.016 283.736 148.192 283.128 147.632C282.52 147.056 281.632 146.768 280.464 146.768C279.664 146.768 278.896 146.904 278.16 147.176C277.424 147.432 276.792 147.792 276.264 148.256L275.496 146.984C276.136 146.44 276.904 146.024 277.8 145.736C278.696 145.432 279.64 145.28 280.632 145.28ZM280.032 156.776C280.992 156.776 281.816 156.56 282.504 156.128C283.192 155.68 283.704 155.04 284.04 154.208V152.144H280.08C277.92 152.144 276.84 152.896 276.84 154.4C276.84 155.136 277.12 155.72 277.68 156.152C278.24 156.568 279.024 156.776 280.032 156.776ZM293.756 158.12C292.732 158.12 291.748 157.976 290.804 157.688C289.876 157.384 289.148 157.008 288.62 156.56L289.388 155.216C289.916 155.632 290.58 155.976 291.38 156.248C292.18 156.504 293.012 156.632 293.876 156.632C295.028 156.632 295.876 156.456 296.42 156.104C296.98 155.736 297.26 155.224 297.26 154.568C297.26 154.104 297.108 153.744 296.804 153.488C296.5 153.216 296.116 153.016 295.652 152.888C295.188 152.744 294.572 152.608 293.804 152.48C292.78 152.288 291.956 152.096 291.332 151.904C290.708 151.696 290.172 151.352 289.724 150.872C289.292 150.392 289.076 149.728 289.076 148.88C289.076 147.824 289.516 146.96 290.396 146.288C291.276 145.616 292.5 145.28 294.068 145.28C294.884 145.28 295.7 145.392 296.516 145.616C297.332 145.824 298.004 146.104 298.532 146.456L297.788 147.824C296.748 147.104 295.508 146.744 294.068 146.744C292.98 146.744 292.156 146.936 291.596 147.32C291.052 147.704 290.78 148.208 290.78 148.832C290.78 149.312 290.932 149.696 291.236 149.984C291.556 150.272 291.948 150.488 292.412 150.632C292.876 150.76 293.516 150.896 294.332 151.04C295.34 151.232 296.148 151.424 296.756 151.616C297.364 151.808 297.884 152.136 298.316 152.6C298.748 153.064 298.964 153.704 298.964 154.52C298.964 155.624 298.5 156.504 297.572 157.16C296.66 157.8 295.388 158.12 293.756 158.12ZM319.916 140.192V158H318.284V155.504C317.772 156.352 317.092 157 316.244 157.448C315.412 157.896 314.468 158.12 313.412 158.12C312.228 158.12 311.156 157.848 310.196 157.304C309.236 156.76 308.484 156 307.94 155.024C307.396 154.048 307.124 152.936 307.124 151.688C307.124 150.44 307.396 149.328 307.94 148.352C308.484 147.376 309.236 146.624 310.196 146.096C311.156 145.552 312.228 145.28 313.412 145.28C314.436 145.28 315.356 145.496 316.172 145.928C317.004 146.344 317.684 146.96 318.212 147.776V140.192H319.916ZM313.556 156.608C314.436 156.608 315.228 156.408 315.932 156.008C316.652 155.592 317.212 155.008 317.612 154.256C318.028 153.504 318.236 152.648 318.236 151.688C318.236 150.728 318.028 149.872 317.612 149.12C317.212 148.368 316.652 147.792 315.932 147.392C315.228 146.976 314.436 146.768 313.556 146.768C312.66 146.768 311.852 146.976 311.132 147.392C310.428 147.792 309.868 148.368 309.452 149.12C309.052 149.872 308.852 150.728 308.852 151.688C308.852 152.648 309.052 153.504 309.452 154.256C309.868 155.008 310.428 155.592 311.132 156.008C311.852 156.408 312.66 156.608 313.556 156.608ZM335.653 152.216H325.093C325.189 153.528 325.693 154.592 326.605 155.408C327.517 156.208 328.669 156.608 330.061 156.608C330.845 156.608 331.565 156.472 332.221 156.2C332.877 155.912 333.445 155.496 333.925 154.952L334.885 156.056C334.325 156.728 333.621 157.24 332.773 157.592C331.941 157.944 331.021 158.12 330.013 158.12C328.717 158.12 327.565 157.848 326.557 157.304C325.565 156.744 324.789 155.976 324.229 155C323.669 154.024 323.389 152.92 323.389 151.688C323.389 150.456 323.653 149.352 324.181 148.376C324.725 147.4 325.461 146.64 326.389 146.096C327.333 145.552 328.389 145.28 329.557 145.28C330.725 145.28 331.773 145.552 332.701 146.096C333.629 146.64 334.357 147.4 334.885 148.376C335.413 149.336 335.677 150.44 335.677 151.688L335.653 152.216ZM329.557 146.744C328.341 146.744 327.317 147.136 326.485 147.92C325.669 148.688 325.205 149.696 325.093 150.944H334.045C333.933 149.696 333.461 148.688 332.629 147.92C331.813 147.136 330.789 146.744 329.557 146.744ZM345.787 141.2H347.563V158H345.787V141.2ZM359.101 145.28C360.685 145.28 361.941 145.744 362.869 146.672C363.813 147.584 364.285 148.92 364.285 150.68V158H362.581V150.848C362.581 149.536 362.253 148.536 361.597 147.848C360.941 147.16 360.005 146.816 358.789 146.816C357.429 146.816 356.349 147.224 355.549 148.04C354.765 148.84 354.373 149.952 354.373 151.376V158H352.669V145.376H354.301V147.704C354.765 146.936 355.405 146.344 356.221 145.928C357.053 145.496 358.013 145.28 359.101 145.28ZM373.087 141.512C372.351 141.512 371.791 141.712 371.407 142.112C371.039 142.512 370.855 143.104 370.855 143.888V145.376H374.743V146.816H370.903V158H369.199V146.816H366.943V145.376H369.199V143.816C369.199 142.664 369.527 141.752 370.183 141.08C370.855 140.408 371.799 140.072 373.015 140.072C373.495 140.072 373.959 140.144 374.407 140.288C374.855 140.416 375.231 140.608 375.535 140.864L374.959 142.136C374.463 141.72 373.839 141.512 373.087 141.512ZM381.993 158.12C380.777 158.12 379.681 157.848 378.705 157.304C377.729 156.744 376.961 155.976 376.401 155C375.841 154.024 375.561 152.92 375.561 151.688C375.561 150.456 375.841 149.352 376.401 148.376C376.961 147.4 377.729 146.64 378.705 146.096C379.681 145.552 380.777 145.28 381.993 145.28C383.209 145.28 384.305 145.552 385.281 146.096C386.257 146.64 387.017 147.4 387.561 148.376C388.121 149.352 388.401 150.456 388.401 151.688C388.401 152.92 388.121 154.024 387.561 155C387.017 155.976 386.257 156.744 385.281 157.304C384.305 157.848 383.209 158.12 381.993 158.12ZM381.993 156.608C382.889 156.608 383.689 156.408 384.393 156.008C385.113 155.592 385.673 155.008 386.073 154.256C386.473 153.504 386.673 152.648 386.673 151.688C386.673 150.728 386.473 149.872 386.073 149.12C385.673 148.368 385.113 147.792 384.393 147.392C383.689 146.976 382.889 146.768 381.993 146.768C381.097 146.768 380.289 146.976 379.569 147.392C378.865 147.792 378.305 148.368 377.889 149.12C377.489 149.872 377.289 150.728 377.289 151.688C377.289 152.648 377.489 153.504 377.889 154.256C378.305 155.008 378.865 155.592 379.569 156.008C380.289 156.408 381.097 156.608 381.993 156.608ZM393.512 147.848C393.912 147 394.504 146.36 395.288 145.928C396.088 145.496 397.072 145.28 398.24 145.28V146.936L397.832 146.912C396.504 146.912 395.464 147.32 394.712 148.136C393.96 148.952 393.584 150.096 393.584 151.568V158H391.88V145.376H393.512V147.848ZM417.069 145.28C418.653 145.28 419.893 145.736 420.789 146.648C421.701 147.56 422.157 148.904 422.157 150.68V158H420.453V150.848C420.453 149.536 420.133 148.536 419.493 147.848C418.869 147.16 417.981 146.816 416.829 146.816C415.517 146.816 414.485 147.224 413.733 148.04C412.981 148.84 412.605 149.952 412.605 151.376V158H410.901V150.848C410.901 149.536 410.581 148.536 409.941 147.848C409.317 147.16 408.421 146.816 407.253 146.816C405.957 146.816 404.925 147.224 404.157 148.04C403.405 148.84 403.029 149.952 403.029 151.376V158H401.325V145.376H402.957V147.68C403.405 146.912 404.029 146.32 404.829 145.904C405.629 145.488 406.549 145.28 407.589 145.28C408.645 145.28 409.557 145.504 410.325 145.952C411.109 146.4 411.693 147.064 412.077 147.944C412.541 147.112 413.205 146.464 414.069 146C414.949 145.52 415.949 145.28 417.069 145.28ZM431.194 145.28C432.842 145.28 434.106 145.696 434.986 146.528C435.866 147.344 436.306 148.56 436.306 150.176V158H434.674V156.032C434.29 156.688 433.722 157.2 432.97 157.568C432.234 157.936 431.354 158.12 430.33 158.12C428.922 158.12 427.802 157.784 426.97 157.112C426.138 156.44 425.722 155.552 425.722 154.448C425.722 153.376 426.106 152.512 426.874 151.856C427.658 151.2 428.898 150.872 430.594 150.872H434.602V150.104C434.602 149.016 434.298 148.192 433.69 147.632C433.082 147.056 432.194 146.768 431.026 146.768C430.226 146.768 429.458 146.904 428.722 147.176C427.986 147.432 427.354 147.792 426.826 148.256L426.058 146.984C426.698 146.44 427.466 146.024 428.362 145.736C429.258 145.432 430.202 145.28 431.194 145.28ZM430.594 156.776C431.554 156.776 432.378 156.56 433.066 156.128C433.754 155.68 434.266 155.04 434.602 154.208V152.144H430.642C428.482 152.144 427.402 152.896 427.402 154.4C427.402 155.136 427.682 155.72 428.242 156.152C428.802 156.568 429.586 156.776 430.594 156.776ZM446.213 158.12C444.965 158.12 443.845 157.848 442.853 157.304C441.877 156.76 441.109 156 440.549 155.024C439.989 154.032 439.709 152.92 439.709 151.688C439.709 150.456 439.989 149.352 440.549 148.376C441.109 147.4 441.877 146.64 442.853 146.096C443.845 145.552 444.965 145.28 446.213 145.28C447.301 145.28 448.269 145.496 449.117 145.928C449.981 146.344 450.661 146.96 451.157 147.776L449.885 148.64C449.469 148.016 448.941 147.552 448.301 147.248C447.661 146.928 446.965 146.768 446.213 146.768C445.301 146.768 444.477 146.976 443.741 147.392C443.021 147.792 442.453 148.368 442.037 149.12C441.637 149.872 441.437 150.728 441.437 151.688C441.437 152.664 441.637 153.528 442.037 154.28C442.453 155.016 443.021 155.592 443.741 156.008C444.477 156.408 445.301 156.608 446.213 156.608C446.965 156.608 447.661 156.456 448.301 156.152C448.941 155.848 449.469 155.384 449.885 154.76L451.157 155.624C450.661 156.44 449.981 157.064 449.117 157.496C448.253 157.912 447.285 158.12 446.213 158.12ZM445.205 163.28C444.421 163.28 443.749 163.096 443.189 162.728L443.597 161.816C444.061 162.12 444.589 162.272 445.181 162.272C445.661 162.272 446.029 162.176 446.285 161.984C446.541 161.792 446.669 161.512 446.669 161.144C446.669 160.808 446.541 160.536 446.285 160.328C446.045 160.136 445.677 160.04 445.181 160.04H444.629L445.205 157.856H446.237L445.877 159.248C446.533 159.312 447.037 159.512 447.389 159.848C447.741 160.2 447.917 160.648 447.917 161.192C447.917 161.832 447.669 162.336 447.173 162.704C446.677 163.088 446.021 163.28 445.205 163.28ZM458.921 145.28C460.569 145.28 461.833 145.696 462.713 146.528C463.593 147.344 464.033 148.56 464.033 150.176V158H462.401V156.032C462.017 156.688 461.449 157.2 460.697 157.568C459.961 157.936 459.081 158.12 458.057 158.12C456.649 158.12 455.529 157.784 454.697 157.112C453.865 156.44 453.449 155.552 453.449 154.448C453.449 153.376 453.833 152.512 454.601 151.856C455.385 151.2 456.625 150.872 458.321 150.872H462.329V150.104C462.329 149.016 462.025 148.192 461.417 147.632C460.809 147.056 459.921 146.768 458.753 146.768C457.953 146.768 457.185 146.904 456.449 147.176C455.713 147.432 455.081 147.792 454.553 148.256L453.785 146.984C454.425 146.44 455.193 146.024 456.089 145.736C456.985 145.432 457.929 145.28 458.921 145.28ZM458.321 156.776C459.281 156.776 460.105 156.56 460.793 156.128C461.481 155.68 461.993 155.04 462.329 154.208V152.144H458.369C456.209 152.144 455.129 152.896 455.129 154.4C455.129 155.136 455.409 155.72 455.969 156.152C456.529 156.568 457.313 156.776 458.321 156.776ZM460.601 143.264C460.233 143.264 459.905 143.184 459.617 143.024C459.329 142.848 459.017 142.608 458.681 142.304C458.393 142.064 458.161 141.896 457.985 141.8C457.825 141.688 457.649 141.632 457.457 141.632C457.089 141.632 456.793 141.768 456.569 142.04C456.345 142.312 456.225 142.688 456.209 143.168H455.177C455.209 142.368 455.417 141.728 455.801 141.248C456.185 140.768 456.697 140.528 457.337 140.528C457.705 140.528 458.025 140.608 458.297 140.768C458.585 140.928 458.913 141.168 459.281 141.488C459.537 141.712 459.753 141.88 459.929 141.992C460.105 142.104 460.289 142.16 460.481 142.16C460.833 142.16 461.121 142.032 461.345 141.776C461.569 141.504 461.697 141.136 461.729 140.672H462.761C462.729 141.456 462.521 142.088 462.137 142.568C461.753 143.032 461.241 143.264 460.601 143.264ZM473.868 158.12C472.652 158.12 471.556 157.848 470.58 157.304C469.604 156.744 468.836 155.976 468.276 155C467.716 154.024 467.436 152.92 467.436 151.688C467.436 150.456 467.716 149.352 468.276 148.376C468.836 147.4 469.604 146.64 470.58 146.096C471.556 145.552 472.652 145.28 473.868 145.28C475.084 145.28 476.18 145.552 477.156 146.096C478.132 146.64 478.892 147.4 479.436 148.376C479.996 149.352 480.276 150.456 480.276 151.688C480.276 152.92 479.996 154.024 479.436 155C478.892 155.976 478.132 156.744 477.156 157.304C476.18 157.848 475.084 158.12 473.868 158.12ZM473.868 156.608C474.764 156.608 475.564 156.408 476.268 156.008C476.988 155.592 477.548 155.008 477.948 154.256C478.348 153.504 478.548 152.648 478.548 151.688C478.548 150.728 478.348 149.872 477.948 149.12C477.548 148.368 476.988 147.792 476.268 147.392C475.564 146.976 474.764 146.768 473.868 146.768C472.972 146.768 472.164 146.976 471.444 147.392C470.74 147.792 470.18 148.368 469.764 149.12C469.364 149.872 469.164 150.728 469.164 151.688C469.164 152.648 469.364 153.504 469.764 154.256C470.18 155.008 470.74 155.592 471.444 156.008C472.164 156.408 472.972 156.608 473.868 156.608ZM501.028 152.216H490.468C490.564 153.528 491.068 154.592 491.98 155.408C492.892 156.208 494.044 156.608 495.436 156.608C496.22 156.608 496.94 156.472 497.596 156.2C498.252 155.912 498.82 155.496 499.3 154.952L500.26 156.056C499.7 156.728 498.996 157.24 498.148 157.592C497.316 157.944 496.396 158.12 495.388 158.12C494.092 158.12 492.94 157.848 491.932 157.304C490.94 156.744 490.164 155.976 489.604 155C489.044 154.024 488.764 152.92 488.764 151.688C488.764 150.456 489.028 149.352 489.556 148.376C490.1 147.4 490.836 146.64 491.764 146.096C492.708 145.552 493.764 145.28 494.932 145.28C496.1 145.28 497.148 145.552 498.076 146.096C499.004 146.64 499.732 147.4 500.26 148.376C500.788 149.336 501.052 150.44 501.052 151.688L501.028 152.216ZM494.932 146.744C493.716 146.744 492.692 147.136 491.86 147.92C491.044 148.688 490.58 149.696 490.468 150.944H499.42C499.308 149.696 498.836 148.688 498.004 147.92C497.188 147.136 496.164 146.744 494.932 146.744ZM54.5711 187.144C52.9071 187.144 51.4031 186.776 50.0591 186.04C48.7311 185.304 47.6831 184.288 46.9151 182.992C46.1631 181.68 45.7871 180.216 45.7871 178.6C45.7871 176.984 46.1631 175.528 46.9151 174.232C47.6831 172.92 48.7391 171.896 50.0831 171.16C51.4271 170.424 52.9311 170.056 54.5951 170.056C55.8431 170.056 56.9951 170.264 58.0511 170.68C59.1071 171.096 60.0031 171.704 60.7391 172.504L59.6111 173.632C58.2991 172.304 56.6431 171.64 54.6431 171.64C53.3151 171.64 52.1071 171.944 51.0191 172.552C49.9311 173.16 49.0751 173.992 48.4511 175.048C47.8431 176.104 47.5391 177.288 47.5391 178.6C47.5391 179.912 47.8431 181.096 48.4511 182.152C49.0751 183.208 49.9311 184.04 51.0191 184.648C52.1071 185.256 53.3151 185.56 54.6431 185.56C56.6591 185.56 58.3151 184.888 59.6111 183.544L60.7391 184.672C60.0031 185.472 59.0991 186.088 58.0271 186.52C56.9711 186.936 55.8191 187.144 54.5711 187.144ZM68.7626 187.12C67.5466 187.12 66.4506 186.848 65.4746 186.304C64.4986 185.744 63.7306 184.976 63.1706 184C62.6106 183.024 62.3306 181.92 62.3306 180.688C62.3306 179.456 62.6106 178.352 63.1706 177.376C63.7306 176.4 64.4986 175.64 65.4746 175.096C66.4506 174.552 67.5466 174.28 68.7626 174.28C69.9786 174.28 71.0746 174.552 72.0506 175.096C73.0266 175.64 73.7866 176.4 74.3306 177.376C74.8906 178.352 75.1706 179.456 75.1706 180.688C75.1706 181.92 74.8906 183.024 74.3306 184C73.7866 184.976 73.0266 185.744 72.0506 186.304C71.0746 186.848 69.9786 187.12 68.7626 187.12ZM68.7626 185.608C69.6586 185.608 70.4586 185.408 71.1626 185.008C71.8826 184.592 72.4426 184.008 72.8426 183.256C73.2426 182.504 73.4426 181.648 73.4426 180.688C73.4426 179.728 73.2426 178.872 72.8426 178.12C72.4426 177.368 71.8826 176.792 71.1626 176.392C70.4586 175.976 69.6586 175.768 68.7626 175.768C67.8666 175.768 67.0586 175.976 66.3386 176.392C65.6346 176.792 65.0746 177.368 64.6586 178.12C64.2586 178.872 64.0586 179.728 64.0586 180.688C64.0586 181.648 64.2586 182.504 64.6586 183.256C65.0746 184.008 65.6346 184.592 66.3386 185.008C67.0586 185.408 67.8666 185.608 68.7626 185.608ZM94.3934 174.28C95.9774 174.28 97.2174 174.736 98.1134 175.648C99.0254 176.56 99.4814 177.904 99.4814 179.68V187H97.7774V179.848C97.7774 178.536 97.4574 177.536 96.8174 176.848C96.1934 176.16 95.3054 175.816 94.1534 175.816C92.8414 175.816 91.8094 176.224 91.0574 177.04C90.3054 177.84 89.9294 178.952 89.9294 180.376V187H88.2254V179.848C88.2254 178.536 87.9054 177.536 87.2654 176.848C86.6414 176.16 85.7454 175.816 84.5774 175.816C83.2814 175.816 82.2494 176.224 81.4814 177.04C80.7294 177.84 80.3534 178.952 80.3534 180.376V187H78.6494V174.376H80.2814V176.68C80.7294 175.912 81.3534 175.32 82.1534 174.904C82.9534 174.488 83.8734 174.28 84.9134 174.28C85.9694 174.28 86.8814 174.504 87.6494 174.952C88.4334 175.4 89.0174 176.064 89.4014 176.944C89.8654 176.112 90.5294 175.464 91.3934 175C92.2734 174.52 93.2734 174.28 94.3934 174.28ZM115.479 174.376V187H113.847V184.696C113.399 185.464 112.783 186.064 111.999 186.496C111.215 186.912 110.319 187.12 109.311 187.12C107.663 187.12 106.359 186.664 105.399 185.752C104.455 184.824 103.983 183.472 103.983 181.696V174.376H105.687V181.528C105.687 182.856 106.015 183.864 106.671 184.552C107.327 185.24 108.263 185.584 109.479 185.584C110.807 185.584 111.855 185.184 112.623 184.384C113.391 183.568 113.775 182.44 113.775 181V174.376H115.479ZM126.683 174.28C128.267 174.28 129.523 174.744 130.451 175.672C131.395 176.584 131.867 177.92 131.867 179.68V187H130.163V179.848C130.163 178.536 129.835 177.536 129.179 176.848C128.523 176.16 127.587 175.816 126.371 175.816C125.011 175.816 123.931 176.224 123.131 177.04C122.347 177.84 121.955 178.952 121.955 180.376V187H120.251V174.376H121.883V176.704C122.347 175.936 122.987 175.344 123.803 174.928C124.635 174.496 125.595 174.28 126.683 174.28ZM136.493 174.376H138.197V187H136.493V174.376ZM137.357 171.616C137.005 171.616 136.709 171.496 136.469 171.256C136.229 171.016 136.109 170.728 136.109 170.392C136.109 170.072 136.229 169.792 136.469 169.552C136.709 169.312 137.005 169.192 137.357 169.192C137.709 169.192 138.005 169.312 138.245 169.552C138.485 169.776 138.605 170.048 138.605 170.368C138.605 170.72 138.485 171.016 138.245 171.256C138.005 171.496 137.709 171.616 137.357 171.616ZM148.171 187.12C146.923 187.12 145.803 186.848 144.811 186.304C143.835 185.76 143.067 185 142.507 184.024C141.947 183.032 141.667 181.92 141.667 180.688C141.667 179.456 141.947 178.352 142.507 177.376C143.067 176.4 143.835 175.64 144.811 175.096C145.803 174.552 146.923 174.28 148.171 174.28C149.259 174.28 150.227 174.496 151.075 174.928C151.939 175.344 152.619 175.96 153.115 176.776L151.843 177.64C151.427 177.016 150.899 176.552 150.259 176.248C149.619 175.928 148.923 175.768 148.171 175.768C147.259 175.768 146.435 175.976 145.699 176.392C144.979 176.792 144.411 177.368 143.995 178.12C143.595 178.872 143.395 179.728 143.395 180.688C143.395 181.664 143.595 182.528 143.995 183.28C144.411 184.016 144.979 184.592 145.699 185.008C146.435 185.408 147.259 185.608 148.171 185.608C148.923 185.608 149.619 185.456 150.259 185.152C150.899 184.848 151.427 184.384 151.843 183.76L153.115 184.624C152.619 185.44 151.939 186.064 151.075 186.496C150.211 186.912 149.243 187.12 148.171 187.12ZM160.878 174.28C162.526 174.28 163.79 174.696 164.67 175.528C165.55 176.344 165.99 177.56 165.99 179.176V187H164.358V185.032C163.974 185.688 163.406 186.2 162.654 186.568C161.918 186.936 161.038 187.12 160.014 187.12C158.606 187.12 157.486 186.784 156.654 186.112C155.822 185.44 155.406 184.552 155.406 183.448C155.406 182.376 155.79 181.512 156.558 180.856C157.342 180.2 158.582 179.872 160.278 179.872H164.286V179.104C164.286 178.016 163.982 177.192 163.374 176.632C162.766 176.056 161.878 175.768 160.71 175.768C159.91 175.768 159.142 175.904 158.406 176.176C157.67 176.432 157.038 176.792 156.51 177.256L155.742 175.984C156.382 175.44 157.15 175.024 158.046 174.736C158.942 174.432 159.886 174.28 160.878 174.28ZM160.278 185.776C161.238 185.776 162.062 185.56 162.75 185.128C163.438 184.68 163.95 184.04 164.286 183.208V181.144H160.326C158.166 181.144 157.086 181.896 157.086 183.4C157.086 184.136 157.366 184.72 157.926 185.152C158.486 185.568 159.27 185.776 160.278 185.776ZM175.897 187.12C174.649 187.12 173.529 186.848 172.537 186.304C171.561 185.76 170.793 185 170.233 184.024C169.673 183.032 169.393 181.92 169.393 180.688C169.393 179.456 169.673 178.352 170.233 177.376C170.793 176.4 171.561 175.64 172.537 175.096C173.529 174.552 174.649 174.28 175.897 174.28C176.985 174.28 177.953 174.496 178.801 174.928C179.665 175.344 180.345 175.96 180.841 176.776L179.569 177.64C179.153 177.016 178.625 176.552 177.985 176.248C177.345 175.928 176.649 175.768 175.897 175.768C174.985 175.768 174.161 175.976 173.425 176.392C172.705 176.792 172.137 177.368 171.721 178.12C171.321 178.872 171.121 179.728 171.121 180.688C171.121 181.664 171.321 182.528 171.721 183.28C172.137 184.016 172.705 184.592 173.425 185.008C174.161 185.408 174.985 185.608 175.897 185.608C176.649 185.608 177.345 185.456 177.985 185.152C178.625 184.848 179.153 184.384 179.569 183.76L180.841 184.624C180.345 185.44 179.665 186.064 178.801 186.496C177.937 186.912 176.969 187.12 175.897 187.12ZM174.889 192.28C174.105 192.28 173.433 192.096 172.873 191.728L173.281 190.816C173.745 191.12 174.273 191.272 174.865 191.272C175.345 191.272 175.713 191.176 175.969 190.984C176.225 190.792 176.353 190.512 176.353 190.144C176.353 189.808 176.225 189.536 175.969 189.328C175.729 189.136 175.361 189.04 174.865 189.04H174.313L174.889 186.856H175.921L175.561 188.248C176.217 188.312 176.721 188.512 177.073 188.848C177.425 189.2 177.601 189.648 177.601 190.192C177.601 190.832 177.353 191.336 176.857 191.704C176.361 192.088 175.705 192.28 174.889 192.28ZM188.605 174.28C190.253 174.28 191.517 174.696 192.397 175.528C193.277 176.344 193.717 177.56 193.717 179.176V187H192.085V185.032C191.701 185.688 191.133 186.2 190.381 186.568C189.645 186.936 188.765 187.12 187.741 187.12C186.333 187.12 185.213 186.784 184.381 186.112C183.549 185.44 183.133 184.552 183.133 183.448C183.133 182.376 183.517 181.512 184.285 180.856C185.069 180.2 186.309 179.872 188.005 179.872H192.013V179.104C192.013 178.016 191.709 177.192 191.101 176.632C190.493 176.056 189.605 175.768 188.437 175.768C187.637 175.768 186.869 175.904 186.133 176.176C185.397 176.432 184.765 176.792 184.237 177.256L183.469 175.984C184.109 175.44 184.877 175.024 185.773 174.736C186.669 174.432 187.613 174.28 188.605 174.28ZM188.005 185.776C188.965 185.776 189.789 185.56 190.477 185.128C191.165 184.68 191.677 184.04 192.013 183.208V181.144H188.053C185.893 181.144 184.812 181.896 184.812 183.4C184.812 184.136 185.093 184.72 185.653 185.152C186.213 185.568 186.997 185.776 188.005 185.776ZM190.285 172.264C189.917 172.264 189.589 172.184 189.301 172.024C189.013 171.848 188.701 171.608 188.365 171.304C188.077 171.064 187.845 170.896 187.669 170.8C187.509 170.688 187.333 170.632 187.141 170.632C186.773 170.632 186.477 170.768 186.253 171.04C186.029 171.312 185.909 171.688 185.893 172.168H184.861C184.893 171.368 185.101 170.728 185.485 170.248C185.869 169.768 186.381 169.528 187.021 169.528C187.389 169.528 187.709 169.608 187.98 169.768C188.269 169.928 188.597 170.168 188.965 170.488C189.221 170.712 189.437 170.88 189.613 170.992C189.789 171.104 189.973 171.16 190.165 171.16C190.517 171.16 190.805 171.032 191.029 170.776C191.253 170.504 191.381 170.136 191.413 169.672H192.445C192.413 170.456 192.205 171.088 191.821 171.568C191.437 172.032 190.925 172.264 190.285 172.264ZM203.552 187.12C202.336 187.12 201.24 186.848 200.264 186.304C199.288 185.744 198.52 184.976 197.96 184C197.4 183.024 197.12 181.92 197.12 180.688C197.12 179.456 197.4 178.352 197.96 177.376C198.52 176.4 199.288 175.64 200.264 175.096C201.24 174.552 202.336 174.28 203.552 174.28C204.768 174.28 205.864 174.552 206.84 175.096C207.816 175.64 208.576 176.4 209.12 177.376C209.68 178.352 209.96 179.456 209.96 180.688C209.96 181.92 209.68 183.024 209.12 184C208.576 184.976 207.816 185.744 206.84 186.304C205.864 186.848 204.768 187.12 203.552 187.12ZM203.552 185.608C204.448 185.608 205.248 185.408 205.952 185.008C206.672 184.592 207.232 184.008 207.632 183.256C208.032 182.504 208.232 181.648 208.232 180.688C208.232 179.728 208.032 178.872 207.632 178.12C207.232 177.368 206.672 176.792 205.952 176.392C205.248 175.976 204.448 175.768 203.552 175.768C202.656 175.768 201.848 175.976 201.128 176.392C200.424 176.792 199.864 177.368 199.448 178.12C199.048 178.872 198.848 179.728 198.848 180.688C198.848 181.648 199.048 182.504 199.448 183.256C199.864 184.008 200.424 184.592 201.128 185.008C201.848 185.408 202.656 185.608 203.552 185.608ZM230.712 181.216H220.152C220.248 182.528 220.752 183.592 221.664 184.408C222.576 185.208 223.728 185.608 225.12 185.608C225.904 185.608 226.624 185.472 227.28 185.2C227.936 184.912 228.504 184.496 228.984 183.952L229.944 185.056C229.384 185.728 228.68 186.24 227.832 186.592C227 186.944 226.08 187.12 225.072 187.12C223.776 187.12 222.624 186.848 221.616 186.304C220.624 185.744 219.848 184.976 219.288 184C218.728 183.024 218.448 181.92 218.448 180.688C218.448 179.456 218.712 178.352 219.24 177.376C219.784 176.4 220.52 175.64 221.448 175.096C222.392 174.552 223.448 174.28 224.616 174.28C225.784 174.28 226.832 174.552 227.76 175.096C228.688 175.64 229.416 176.4 229.944 177.376C230.472 178.336 230.736 179.44 230.736 180.688L230.712 181.216ZM224.616 175.744C223.4 175.744 222.376 176.136 221.544 176.92C220.728 177.688 220.264 178.696 220.152 179.944H229.104C228.992 178.696 228.52 177.688 227.688 176.92C226.872 176.136 225.848 175.744 224.616 175.744ZM249.948 174.28C251.532 174.28 252.772 174.736 253.668 175.648C254.58 176.56 255.036 177.904 255.036 179.68V187H253.332V179.848C253.332 178.536 253.012 177.536 252.372 176.848C251.748 176.16 250.86 175.816 249.708 175.816C248.396 175.816 247.364 176.224 246.612 177.04C245.86 177.84 245.484 178.952 245.484 180.376V187H243.78V179.848C243.78 178.536 243.46 177.536 242.82 176.848C242.196 176.16 241.3 175.816 240.132 175.816C238.836 175.816 237.804 176.224 237.036 177.04C236.284 177.84 235.908 178.952 235.908 180.376V187H234.204V174.376H235.836V176.68C236.284 175.912 236.908 175.32 237.708 174.904C238.508 174.488 239.428 174.28 240.468 174.28C241.524 174.28 242.436 174.504 243.204 174.952C243.988 175.4 244.572 176.064 244.956 176.944C245.42 176.112 246.084 175.464 246.948 175C247.828 174.52 248.828 174.28 249.948 174.28ZM269.562 171.736H263.659V170.2H277.243V171.736H271.339V187H269.562V171.736ZM289.399 181.216H278.839C278.935 182.528 279.439 183.592 280.351 184.408C281.263 185.208 282.415 185.608 283.807 185.608C284.591 185.608 285.311 185.472 285.967 185.2C286.623 184.912 287.191 184.496 287.671 183.952L288.631 185.056C288.071 185.728 287.367 186.24 286.519 186.592C285.687 186.944 284.767 187.12 283.759 187.12C282.463 187.12 281.311 186.848 280.303 186.304C279.311 185.744 278.535 184.976 277.975 184C277.415 183.024 277.135 181.92 277.135 180.688C277.135 179.456 277.399 178.352 277.927 177.376C278.471 176.4 279.207 175.64 280.135 175.096C281.079 174.552 282.135 174.28 283.303 174.28C284.471 174.28 285.519 174.552 286.447 175.096C287.375 175.64 288.103 176.4 288.631 177.376C289.159 178.336 289.423 179.44 289.423 180.688L289.399 181.216ZM283.303 175.744C282.087 175.744 281.063 176.136 280.231 176.92C279.415 177.688 278.951 178.696 278.839 179.944H287.791C287.679 178.696 287.207 177.688 286.375 176.92C285.559 176.136 284.535 175.744 283.303 175.744ZM308.636 174.28C310.22 174.28 311.46 174.736 312.356 175.648C313.268 176.56 313.724 177.904 313.724 179.68V187H312.02V179.848C312.02 178.536 311.7 177.536 311.06 176.848C310.436 176.16 309.548 175.816 308.396 175.816C307.084 175.816 306.052 176.224 305.3 177.04C304.548 177.84 304.172 178.952 304.172 180.376V187H302.468V179.848C302.468 178.536 302.148 177.536 301.508 176.848C300.884 176.16 299.988 175.816 298.82 175.816C297.524 175.816 296.492 176.224 295.724 177.04C294.972 177.84 294.596 178.952 294.596 180.376V187H292.892V174.376H294.524V176.68C294.972 175.912 295.596 175.32 296.396 174.904C297.196 174.488 298.116 174.28 299.156 174.28C300.212 174.28 301.124 174.504 301.892 174.952C302.676 175.4 303.26 176.064 303.644 176.944C304.108 176.112 304.772 175.464 305.636 175C306.516 174.52 307.516 174.28 308.636 174.28ZM324.849 174.28C326.033 174.28 327.105 174.552 328.065 175.096C329.025 175.624 329.777 176.376 330.321 177.352C330.865 178.328 331.137 179.44 331.137 180.688C331.137 181.952 330.865 183.072 330.321 184.048C329.777 185.024 329.025 185.784 328.065 186.328C327.121 186.856 326.049 187.12 324.849 187.12C323.825 187.12 322.897 186.912 322.065 186.496C321.249 186.064 320.577 185.44 320.049 184.624V191.656H318.345V174.376H319.977V176.872C320.489 176.04 321.161 175.4 321.993 174.952C322.841 174.504 323.793 174.28 324.849 174.28ZM324.729 185.608C325.609 185.608 326.409 185.408 327.129 185.008C327.849 184.592 328.409 184.008 328.809 183.256C329.225 182.504 329.433 181.648 329.433 180.688C329.433 179.728 329.225 178.88 328.809 178.144C328.409 177.392 327.849 176.808 327.129 176.392C326.409 175.976 325.609 175.768 324.729 175.768C323.833 175.768 323.025 175.976 322.305 176.392C321.601 176.808 321.041 177.392 320.625 178.144C320.225 178.88 320.025 179.728 320.025 180.688C320.025 181.648 320.225 182.504 320.625 183.256C321.041 184.008 321.601 184.592 322.305 185.008C323.025 185.408 323.833 185.608 324.729 185.608ZM339.77 187.12C338.554 187.12 337.458 186.848 336.482 186.304C335.506 185.744 334.738 184.976 334.178 184C333.618 183.024 333.338 181.92 333.338 180.688C333.338 179.456 333.618 178.352 334.178 177.376C334.738 176.4 335.506 175.64 336.482 175.096C337.458 174.552 338.554 174.28 339.77 174.28C340.986 174.28 342.082 174.552 343.058 175.096C344.034 175.64 344.794 176.4 345.338 177.376C345.898 178.352 346.178 179.456 346.178 180.688C346.178 181.92 345.898 183.024 345.338 184C344.794 184.976 344.034 185.744 343.058 186.304C342.082 186.848 340.986 187.12 339.77 187.12ZM339.77 185.608C340.666 185.608 341.466 185.408 342.17 185.008C342.89 184.592 343.45 184.008 343.85 183.256C344.25 182.504 344.45 181.648 344.45 180.688C344.45 179.728 344.25 178.872 343.85 178.12C343.45 177.368 342.89 176.792 342.17 176.392C341.466 175.976 340.666 175.768 339.77 175.768C338.874 175.768 338.066 175.976 337.346 176.392C336.642 176.792 336.082 177.368 335.666 178.12C335.266 178.872 335.066 179.728 335.066 180.688C335.066 181.648 335.266 182.504 335.666 183.256C336.082 184.008 336.642 184.592 337.346 185.008C338.066 185.408 338.874 185.608 339.77 185.608ZM353.041 187.12C352.017 187.12 351.033 186.976 350.089 186.688C349.161 186.384 348.433 186.008 347.905 185.56L348.673 184.216C349.201 184.632 349.865 184.976 350.665 185.248C351.465 185.504 352.297 185.632 353.161 185.632C354.313 185.632 355.161 185.456 355.705 185.104C356.265 184.736 356.545 184.224 356.545 183.568C356.545 183.104 356.393 182.744 356.089 182.488C355.785 182.216 355.401 182.016 354.937 181.888C354.473 181.744 353.857 181.608 353.089 181.48C352.065 181.288 351.241 181.096 350.617 180.904C349.993 180.696 349.457 180.352 349.009 179.872C348.577 179.392 348.361 178.728 348.361 177.88C348.361 176.824 348.801 175.96 349.681 175.288C350.561 174.616 351.785 174.28 353.353 174.28C354.169 174.28 354.985 174.392 355.801 174.616C356.617 174.824 357.289 175.104 357.817 175.456L357.073 176.824C356.033 176.104 354.793 175.744 353.353 175.744C352.265 175.744 351.441 175.936 350.881 176.32C350.337 176.704 350.065 177.208 350.065 177.832C350.065 178.312 350.217 178.696 350.521 178.984C350.841 179.272 351.233 179.488 351.697 179.632C352.161 179.76 352.801 179.896 353.617 180.04C354.625 180.232 355.433 180.424 356.041 180.616C356.649 180.808 357.169 181.136 357.601 181.6C358.033 182.064 358.249 182.704 358.249 183.52C358.249 184.624 357.785 185.504 356.857 186.16C355.945 186.8 354.673 187.12 353.041 187.12ZM379.201 169.192V187H377.569V184.504C377.057 185.352 376.377 186 375.529 186.448C374.697 186.896 373.753 187.12 372.697 187.12C371.513 187.12 370.441 186.848 369.481 186.304C368.521 185.76 367.769 185 367.225 184.024C366.681 183.048 366.409 181.936 366.409 180.688C366.409 179.44 366.681 178.328 367.225 177.352C367.769 176.376 368.521 175.624 369.481 175.096C370.441 174.552 371.513 174.28 372.697 174.28C373.721 174.28 374.641 174.496 375.457 174.928C376.289 175.344 376.969 175.96 377.497 176.776V169.192H379.201ZM372.841 185.608C373.721 185.608 374.513 185.408 375.217 185.008C375.937 184.592 376.497 184.008 376.897 183.256C377.313 182.504 377.521 181.648 377.521 180.688C377.521 179.728 377.313 178.872 376.897 178.12C376.497 177.368 375.937 176.792 375.217 176.392C374.513 175.976 373.721 175.768 372.841 175.768C371.945 175.768 371.137 175.976 370.417 176.392C369.713 176.792 369.153 177.368 368.737 178.12C368.337 178.872 368.137 179.728 368.137 180.688C368.137 181.648 368.337 182.504 368.737 183.256C369.153 184.008 369.713 184.592 370.417 185.008C371.137 185.408 371.945 185.608 372.841 185.608ZM394.938 181.216H384.378C384.474 182.528 384.978 183.592 385.89 184.408C386.802 185.208 387.954 185.608 389.346 185.608C390.13 185.608 390.85 185.472 391.506 185.2C392.162 184.912 392.73 184.496 393.21 183.952L394.17 185.056C393.61 185.728 392.906 186.24 392.058 186.592C391.226 186.944 390.306 187.12 389.298 187.12C388.002 187.12 386.85 186.848 385.842 186.304C384.85 185.744 384.074 184.976 383.514 184C382.954 183.024 382.674 181.92 382.674 180.688C382.674 179.456 382.938 178.352 383.466 177.376C384.01 176.4 384.746 175.64 385.674 175.096C386.618 174.552 387.674 174.28 388.842 174.28C390.01 174.28 391.058 174.552 391.986 175.096C392.914 175.64 393.642 176.4 394.17 177.376C394.698 178.336 394.962 179.44 394.962 180.688L394.938 181.216ZM388.842 175.744C387.626 175.744 386.602 176.136 385.77 176.92C384.954 177.688 384.49 178.696 384.378 179.944H393.33C393.218 178.696 392.746 177.688 391.914 176.92C391.098 176.136 390.074 175.744 388.842 175.744ZM411.36 170.2C413.504 170.2 415.184 170.712 416.4 171.736C417.616 172.76 418.224 174.168 418.224 175.96C418.224 177.752 417.616 179.16 416.4 180.184C415.184 181.192 413.504 181.696 411.36 181.696H406.848V187H405.072V170.2H411.36ZM411.312 180.136C412.976 180.136 414.248 179.776 415.128 179.056C416.008 178.32 416.448 177.288 416.448 175.96C416.448 174.6 416.008 173.56 415.128 172.84C414.248 172.104 412.976 171.736 411.312 171.736H406.848V180.136H411.312ZM426.003 174.28C427.651 174.28 428.915 174.696 429.795 175.528C430.675 176.344 431.115 177.56 431.115 179.176V187H429.483V185.032C429.099 185.688 428.531 186.2 427.779 186.568C427.043 186.936 426.163 187.12 425.139 187.12C423.731 187.12 422.611 186.784 421.779 186.112C420.947 185.44 420.531 184.552 420.531 183.448C420.531 182.376 420.915 181.512 421.683 180.856C422.467 180.2 423.707 179.872 425.403 179.872H429.411V179.104C429.411 178.016 429.107 177.192 428.499 176.632C427.891 176.056 427.003 175.768 425.835 175.768C425.035 175.768 424.267 175.904 423.531 176.176C422.795 176.432 422.163 176.792 421.635 177.256L420.867 175.984C421.507 175.44 422.275 175.024 423.171 174.736C424.067 174.432 425.011 174.28 426.003 174.28ZM425.403 185.776C426.363 185.776 427.187 185.56 427.875 185.128C428.563 184.68 429.075 184.04 429.411 183.208V181.144H425.451C423.291 181.144 422.211 181.896 422.211 183.4C422.211 184.136 422.491 184.72 423.051 185.152C423.611 185.568 424.395 185.776 425.403 185.776ZM442.175 174.28C443.759 174.28 445.015 174.744 445.943 175.672C446.887 176.584 447.359 177.92 447.359 179.68V187H445.655V179.848C445.655 178.536 445.327 177.536 444.671 176.848C444.015 176.16 443.079 175.816 441.863 175.816C440.503 175.816 439.423 176.224 438.623 177.04C437.839 177.84 437.447 178.952 437.447 180.376V187H435.743V174.376H437.375V176.704C437.839 175.936 438.479 175.344 439.295 174.928C440.127 174.496 441.087 174.28 442.175 174.28ZM463.552 169.192V187H461.92V184.504C461.408 185.352 460.728 186 459.88 186.448C459.048 186.896 458.104 187.12 457.048 187.12C455.864 187.12 454.792 186.848 453.832 186.304C452.872 185.76 452.12 185 451.576 184.024C451.032 183.048 450.76 181.936 450.76 180.688C450.76 179.44 451.032 178.328 451.576 177.352C452.12 176.376 452.872 175.624 453.832 175.096C454.792 174.552 455.864 174.28 457.048 174.28C458.072 174.28 458.992 174.496 459.808 174.928C460.64 175.344 461.32 175.96 461.848 176.776V169.192H463.552ZM457.192 185.608C458.072 185.608 458.864 185.408 459.568 185.008C460.288 184.592 460.848 184.008 461.248 183.256C461.664 182.504 461.872 181.648 461.872 180.688C461.872 179.728 461.664 178.872 461.248 178.12C460.848 177.368 460.288 176.792 459.568 176.392C458.864 175.976 458.072 175.768 457.192 175.768C456.296 175.768 455.488 175.976 454.768 176.392C454.064 176.792 453.504 177.368 453.088 178.12C452.688 178.872 452.488 179.728 452.488 180.688C452.488 181.648 452.688 182.504 453.088 183.256C453.504 184.008 454.064 184.592 454.768 185.008C455.488 185.408 456.296 185.608 457.192 185.608ZM479.29 181.216H468.73C468.826 182.528 469.33 183.592 470.242 184.408C471.154 185.208 472.306 185.608 473.698 185.608C474.482 185.608 475.202 185.472 475.858 185.2C476.514 184.912 477.082 184.496 477.562 183.952L478.522 185.056C477.962 185.728 477.258 186.24 476.41 186.592C475.578 186.944 474.658 187.12 473.65 187.12C472.354 187.12 471.202 186.848 470.194 186.304C469.202 185.744 468.426 184.976 467.866 184C467.306 183.024 467.026 181.92 467.026 180.688C467.026 179.456 467.29 178.352 467.818 177.376C468.362 176.4 469.098 175.64 470.026 175.096C470.97 174.552 472.026 174.28 473.194 174.28C474.362 174.28 475.41 174.552 476.338 175.096C477.266 175.64 477.994 176.4 478.522 177.376C479.05 178.336 479.314 179.44 479.314 180.688L479.29 181.216ZM473.194 175.744C471.978 175.744 470.954 176.136 470.122 176.92C469.306 177.688 468.842 178.696 468.73 179.944H477.682C477.57 178.696 477.098 177.688 476.266 176.92C475.45 176.136 474.426 175.744 473.194 175.744ZM498.526 174.28C500.11 174.28 501.35 174.736 502.246 175.648C503.158 176.56 503.614 177.904 503.614 179.68V187H501.91V179.848C501.91 178.536 501.59 177.536 500.95 176.848C500.326 176.16 499.438 175.816 498.286 175.816C496.974 175.816 495.942 176.224 495.19 177.04C494.438 177.84 494.062 178.952 494.062 180.376V187H492.358V179.848C492.358 178.536 492.038 177.536 491.398 176.848C490.774 176.16 489.878 175.816 488.71 175.816C487.414 175.816 486.382 176.224 485.614 177.04C484.862 177.84 484.486 178.952 484.486 180.376V187H482.782V174.376H484.414V176.68C484.862 175.912 485.486 175.32 486.286 174.904C487.086 174.488 488.006 174.28 489.046 174.28C490.102 174.28 491.014 174.504 491.782 174.952C492.566 175.4 493.15 176.064 493.534 176.944C493.998 176.112 494.662 175.464 495.526 175C496.406 174.52 497.406 174.28 498.526 174.28ZM508.235 174.376H509.939V187H508.235V174.376ZM509.099 171.616C508.747 171.616 508.451 171.496 508.211 171.256C507.971 171.016 507.851 170.728 507.851 170.392C507.851 170.072 507.971 169.792 508.211 169.552C508.451 169.312 508.747 169.192 509.099 169.192C509.451 169.192 509.747 169.312 509.987 169.552C510.227 169.776 510.347 170.048 510.347 170.368C510.347 170.72 510.227 171.016 509.987 171.256C509.747 171.496 509.451 171.616 509.099 171.616ZM519.097 174.28C520.745 174.28 522.009 174.696 522.889 175.528C523.769 176.344 524.209 177.56 524.209 179.176V187H522.577V185.032C522.193 185.688 521.625 186.2 520.873 186.568C520.137 186.936 519.257 187.12 518.233 187.12C516.825 187.12 515.705 186.784 514.873 186.112C514.041 185.44 513.625 184.552 513.625 183.448C513.625 182.376 514.009 181.512 514.777 180.856C515.561 180.2 516.801 179.872 518.497 179.872H522.505V179.104C522.505 178.016 522.201 177.192 521.593 176.632C520.985 176.056 520.097 175.768 518.929 175.768C518.129 175.768 517.361 175.904 516.625 176.176C515.889 176.432 515.257 176.792 514.729 177.256L513.961 175.984C514.601 175.44 515.369 175.024 516.265 174.736C517.161 174.432 518.105 174.28 519.097 174.28ZM518.497 185.776C519.457 185.776 520.281 185.56 520.969 185.128C521.657 184.68 522.169 184.04 522.505 183.208V181.144H518.545C516.385 181.144 515.305 181.896 515.305 183.4C515.305 184.136 515.585 184.72 516.145 185.152C516.705 185.568 517.489 185.776 518.497 185.776Z" fill="white"/>
</svg>
