<?xml version="1.0" encoding="utf-8"?>
<!-- Generator: Adobe Illustrator 25.2.1, SVG Export Plug-In . SVG Version: 6.00 Build 0)  -->
<svg version="1.1" id="Camada_1" xmlns="http://www.w3.org/2000/svg" xmlns:xlink="http://www.w3.org/1999/xlink" x="0px" y="0px"
	 viewBox="0 0 792 792" style="enable-background:new 0 0 792 792;" xml:space="preserve">
<style type="text/css">
	.st0{fill:#FFFFFF;}
	.st1{fill:#1E1E1C;}
	.st2{fill:#1197C4;}
	.st3{fill:#F3A40A;}
	.st4{fill:#7C5FA5;}
</style>
<rect class="st0" width="792" height="792"/>
<g>
	<g>
		<g>
			<path class="st1" d="M138.8,644.4h-38.2V529h38.2V644.4z"/>
		</g>
		<g>
			<path class="st1" d="M284.6,644.4h-99V529h97.6v29h-59.4v14.2h54v28.9h-54v14.3h60.9L284.6,644.4L284.6,644.4z"/>
			<path class="st1" d="M403.2,644.4h-99V529h97.6v29h-59.4v14.2h54v28.9h-54v14.3h60.9L403.2,644.4L403.2,644.4z"/>
			<path class="st1" d="M542.6,644.4h-40.7l-5.8-16.3h-43.3l-5.9,16.3h-39.2L456.5,529h39.2L542.6,644.4z M486.8,600.8L475,567
				l-12.2,33.7H486.8z"/>
		</g>
		<g>
			<path class="st1" d="M582,618.7c-7.1,0-12.8-2.3-17.3-6.8c-4.5-4.5-6.7-10.6-6.7-18.2s2.3-13.7,6.8-18.1
				c4.5-4.4,10.2-6.7,17.1-6.7c8.9,0,15.4,3.8,19.4,11.5v-31.3h7.4v69.6h-7.4v-10.9C597.3,615.1,590.8,618.7,582,618.7z
				 M583.4,612.4c5.2,0,9.5-1.7,12.9-5.2c3.4-3.5,5.1-7.9,5.1-13.3c0-5.1-1.6-9.5-4.9-13.1c-3.2-3.6-7.6-5.4-13.1-5.4
				c-5.6,0-10,1.8-13.2,5.5c-3.2,3.6-4.8,8-4.8,13.1c0,5.2,1.6,9.6,4.8,13.1C573.4,610.6,577.8,612.4,583.4,612.4z"/>
			<path class="st1" d="M639.7,618.7c-3.9,0-7-0.7-9.5-2.1c-2.5-1.4-4.3-3.2-5.5-5.6c-1.2-2.3-1.8-4.8-1.8-7.5c0-4,1.5-7.3,4.5-10
				c3-2.7,7.7-4,14.1-4h16.3v-3.1c0-3.4-1-6.1-3.2-8.3c-2.1-2.1-5.5-3.2-10.1-3.2c-5.5,0-10.8,1.9-15.8,5.7l-3.1-5
				c6.4-4.6,13.2-6.9,20.3-6.9c6.7,0,11.6,1.6,14.6,4.7c3,3.1,4.5,7.2,4.5,12.3l0.1,32.7H658v-8C653.7,616,647.6,618.7,639.7,618.7z
				 M641.1,612.5c3.9,0,7.4-0.9,10.3-2.7c3-1.8,5.1-4.6,6.4-8.5v-6h-15.5c-8.3,0-12.5,2.7-12.6,8.1c0,2.5,1,4.7,2.9,6.5
				C634.5,611.6,637.4,612.5,641.1,612.5z"/>
		</g>
		<g>
			<path class="st1" d="M239.4,792c-9.8,0-18.9-1.8-27.2-5.4c-8.3-3.6-15.1-9.2-20.3-16.9c-4.8-7.4-7.2-16.4-7.2-27.1v-66h38.2V742
				c0,6.2,1.8,10.7,5.3,13.7c3.6,3,7.4,4.5,11.4,4.5c4.1,0,7.7-1.5,10.9-4.5c3.2-3,4.8-7.6,4.8-13.7v-65.5h38.2v66
				c0,14.6-4.7,26.5-14.2,35.7C269.8,787.4,256.5,792,239.4,792z"/>
			<path class="st1" d="M346.3,791.9h-38.2V676.6H401v29h-54.6v19.9h51.2v29h-51.2L346.3,791.9L346.3,791.9z"/>
			<path class="st1" d="M550.1,791.9h-33.4v-63.2l-23.2,52h-24.8l-23.2-52v63.2H412V676.6h40.5l28.6,60.2l28.5-60.2h40.5
				L550.1,791.9L550.1,791.9z"/>
			<path class="st1" d="M691.4,791.9h-40.7l-5.8-16.3h-43.3l-5.9,16.3h-39.2l48.7-115.3h39.2L691.4,791.9z M635.6,748.3l-11.8-33.7
				l-12.2,33.7H635.6z"/>
		</g>
	</g>
	<g>
		<path class="st2" d="M332.2,371.8l101-175l77.3,133.9V127.4H392.7c-7,66.5-60,119.6-126.6,126.6v117.8H332.2z"/>
		<path class="st3" d="M236,223.6V97.2h126.4C354.9,42.4,307.9,0,251.1,0c-61.9,0-112.3,50.4-112.3,112.3
			C138.8,169.1,181.2,216.2,236,223.6z"/>
		<path class="st4" d="M362.4,127.4h-96.2v96.2C316.1,216.8,355.6,177.2,362.4,127.4z"/>
		<polygon class="st3" points="499.4,371.8 433.3,257.2 367.1,371.8 		"/>
		<polygon class="st4" points="539.2,440.6 516.9,402 349.7,402 327.3,440.6 		"/>
	</g>
</g>
</svg>
